<svg xmlns="http://www.w3.org/2000/svg" xmlns:svg="http://www.w3.org/2000/svg" id="svg2" width="32" height="32" x="0" y="0" enable-background="new 0 0 566.93 566.93" version="1.1" viewBox="0 0 350.5 350.5" xml:space="preserve"><metadata id="metadata52"/><g id="BG" display="none" transform="translate(-85.128,118.5)"><g id="g5" display="inline"><rect id="rect7" width="451.923" height="164.103" x="72.077" y="96.179" fill="#c2b59b"/></g></g><g id="cube" transform="translate(-82.725754,-11.22127)"><g id="g10"><polygon id="polygon12" fill="#0084cb" points="104.128 156.743 104.128 217 100.128 215 100.128 154.743"/></g><g id="g14"><polygon id="polygon16" fill="#00b3ea" points="147 154.743 151.564 156.743 104.128 156.743 100.128 154.743"/></g><g id="g18"><rect id="rect20" width="47.436" height="60.256" x="104.128" y="156.743" fill="#009edf"/></g></g><g id="barrier" transform="translate(-82.725754,-11.22127)"><g id="g23"><path id="path25" fill="#fff" d="m 419.128,184.256 c 0,5.5 -4.5,10 -10,10 H 130.003 c -5.5,0 -10,-4.5 -10,-10 v -12.052 c 0,-5.5 4.5,-10 10,-10 h 279.125 c 5.5,0 10,4.5 10,10 v 12.052 z"/></g><g id="g27"><path id="path29" fill="none" stroke="#ed1c24" stroke-width="3" d="m 419.128,184.256 c 0,5.5 -4.5,10 -10,10 H 130.003 c -5.5,0 -10,-4.5 -10,-10 v -12.052 c 0,-5.5 4.5,-10 10,-10 h 279.125 c 5.5,0 10,4.5 10,10 v 12.052 z"/></g></g><g id="stripes" transform="translate(-82.725754,-11.22127)"><polygon id="polygon32" fill="#ed1c24" points="190.563 193.25 161.625 193.25 193.125 161.75 221.5 161.75"/><polygon id="polygon34" fill="#ed1c24" points="139.938 193.25 125.25 193.25 120.003 184.247 142.5 161.75 170.875 161.75"/><polygon id="polygon36" fill="#ed1c24" points="240.563 193.25 211.625 193.25 243.125 161.75 271.5 161.75"/><polygon id="polygon38" fill="#ed1c24" points="290.688 193.25 261.75 193.25 293.25 161.75 321.625 161.75"/><polygon id="polygon40" fill="#ed1c24" points="340.188 193.25 311.25 193.25 342.75 161.75 371.125 161.75"/><polygon id="polygon42" fill="#ed1c24" points="390.688 193.25 361.75 193.25 393.25 161.75 410 161.75 417.064 166.394"/><polygon id="polygon44" fill="#ed1c24" points="439.938 193.98 411 193.98 442.5 162.48 410.875 162.48" display="none"/><polygon id="polygon46" fill="#ed1c24" points="419.128 175.728 418.25 189.625 412.5 193.98 400.875 193.98" display="none"/></g></svg>