<svg xmlns="http://www.w3.org/2000/svg" xmlns:svg="http://www.w3.org/2000/svg" id="svg2816" width="24" height="24" version="1.1"><metadata id="metadata2821"/><g id="layer1" transform="translate(0,8)"><path id="path2999" fill="#4d4d4d" fill-opacity="1" stroke="none" d="M 4.5,9 C 3.1192882,9 2,10.119288 2,11.5 2,12.880712 3.1192882,14 4.5,14 5.8807118,14 7,12.880712 7,11.5 7,10.119288 5.8807118,9 4.5,9 z m 0,1.25 c 0.6903559,0 1.25,0.559644 1.25,1.25 0,0.690356 -0.5596441,1.25 -1.25,1.25 -0.6903559,0 -1.25,-0.559644 -1.25,-1.25 0,-0.690356 0.5596441,-1.25 1.25,-1.25 z"/><path id="path3003" fill="#4d4d4d" fill-opacity="1" stroke="none" d="M 11.5,9 C 10.119288,9 9,10.119288 9,11.5 9,12.880712 10.119288,14 11.5,14 12.880712,14 14,12.880712 14,11.5 14,10.119288 12.880712,9 11.5,9 z m 0,1.25 c 0.690356,0 1.25,0.559644 1.25,1.25 0,0.690356 -0.559644,1.25 -1.25,1.25 -0.690356,0 -1.25,-0.559644 -1.25,-1.25 0,-0.690356 0.559644,-1.25 1.25,-1.25 z"/><path id="path3007" fill="#4d4d4d" fill-opacity="1" stroke="none" d="m 24,22 c 0,1.104569 -0.895431,2 -2,2 -1.104569,0 -2,-0.895431 -2,-2 0,-1.104569 0.895431,-2 2,-2 1.104569,0 2,0.895431 2,2 z" transform="matrix(0.5,0,0,0.5,10,2)"/><rect id="rect3009" width="2" height="18" x="20" y="-5" fill="#4d4d4d" fill-opacity="1" stroke="none" ry=".101"/><path id="path3017" fill="#4d4d4d" fill-opacity="1" stroke="none" d="m 24,22 c 0,1.104569 -0.895431,2 -2,2 -1.104569,0 -2,-0.895431 -2,-2 0,-1.104569 0.895431,-2 2,-2 1.104569,0 2,0.895431 2,2 z" transform="matrix(0.5,0,0,0.5,10,-16)"/><rect id="rect3019" width="5.5" height="1" x="15.5" y="-6" fill="#4d4d4d" fill-opacity="1" stroke="none" ry=".062"/><path id="path3021" fill="#4d4d4d" fill-opacity="1" stroke="none" d="m 24,22 c 0,1.104569 -0.895431,2 -2,2 -1.104569,0 -2,-0.895431 -2,-2 0,-1.104569 0.895431,-2 2,-2 1.104569,0 2,0.895431 2,2 z" transform="matrix(0.25,0,0,0.25,10,-11)"/><path id="path3057" fill="#4d4d4d" fill-opacity="1" stroke="none" d="m 2,2 4,11 -1,5 1,1 2,-5 2,5 1,-1 -1,-5 4,-11 -6,9 z" transform="translate(0,-8)"/><rect id="rect3005" width="6.5" height="1" x="15.5" y="-4" fill="#4d4d4d" fill-opacity="1" stroke="none" ry=".062"/><path id="path3008" fill="#4d4d4d" fill-opacity="1" stroke="none" d="m 24,22 c 0,1.104569 -0.895431,2 -2,2 -1.104569,0 -2,-0.895431 -2,-2 0,-1.104569 0.895431,-2 2,-2 1.104569,0 2,0.895431 2,2 z" transform="matrix(0.25,0,0,0.25,10,-9)"/><rect id="rect3010" width="6.5" height="1" x="15.5" y="-2" fill="#4d4d4d" fill-opacity="1" stroke="none" ry=".062"/><path id="path3012" fill="#4d4d4d" fill-opacity="1" stroke="none" d="m 24,22 c 0,1.104569 -0.895431,2 -2,2 -1.104569,0 -2,-0.895431 -2,-2 0,-1.104569 0.895431,-2 2,-2 1.104569,0 2,0.895431 2,2 z" transform="matrix(0.25,0,0,0.25,10,-7)"/><rect id="rect3014" width="6.5" height="1" x="15.5" y="0" fill="#4d4d4d" fill-opacity="1" stroke="none" ry=".062"/><path id="path3016" fill="#4d4d4d" fill-opacity="1" stroke="none" d="m 24,22 c 0,1.104569 -0.895431,2 -2,2 -1.104569,0 -2,-0.895431 -2,-2 0,-1.104569 0.895431,-2 2,-2 1.104569,0 2,0.895431 2,2 z" transform="matrix(0.25,0,0,0.25,10,-5)"/><rect id="rect3018" width="6.5" height="1" x="15.5" y="2" fill="#4d4d4d" fill-opacity="1" stroke="none" ry=".062"/><path id="path3020" fill="#4d4d4d" fill-opacity="1" stroke="none" d="m 24,22 c 0,1.104569 -0.895431,2 -2,2 -1.104569,0 -2,-0.895431 -2,-2 0,-1.104569 0.895431,-2 2,-2 1.104569,0 2,0.895431 2,2 z" transform="matrix(0.25,0,0,0.25,10,-3)"/><rect id="rect3022" width="6.5" height="1" x="15.5" y="4" fill="#4d4d4d" fill-opacity="1" stroke="none" ry=".062"/><path id="path3024" fill="#4d4d4d" fill-opacity="1" stroke="none" d="m 24,22 c 0,1.104569 -0.895431,2 -2,2 -1.104569,0 -2,-0.895431 -2,-2 0,-1.104569 0.895431,-2 2,-2 1.104569,0 2,0.895431 2,2 z" transform="matrix(0.25,0,0,0.25,10,-1)"/><rect id="rect3026" width="6.5" height="1" x="15.5" y="6" fill="#4d4d4d" fill-opacity="1" stroke="none" ry=".062"/><path id="path3028" fill="#4d4d4d" fill-opacity="1" stroke="none" d="m 24,22 c 0,1.104569 -0.895431,2 -2,2 -1.104569,0 -2,-0.895431 -2,-2 0,-1.104569 0.895431,-2 2,-2 1.104569,0 2,0.895431 2,2 z" transform="matrix(0.25,0,0,0.25,10,1)"/></g></svg>