<svg xmlns="http://www.w3.org/2000/svg" xmlns:svg="http://www.w3.org/2000/svg" id="symbol-athletics-borderless" width="24" height="24" version="1.0" viewBox="0 0 188 188"><metadata id="metadata14"/><path id="path3214" fill="none" fill-rule="evenodd" stroke="#a0a0a0" stroke-dasharray="none" stroke-linecap="square" stroke-linejoin="miter" stroke-miterlimit="4" stroke-opacity="1" stroke-width="7.813" d="M 96.54581,35.65625 L 96.54581,145.03125"/><path id="path3218" fill="none" fill-rule="evenodd" stroke="#a0a0a0" stroke-dasharray="none" stroke-linecap="butt" stroke-linejoin="miter" stroke-miterlimit="4" stroke-opacity="1" stroke-width="7.813" d="M 96.54581,82.53125 L 143.42081,129.40625"/><path id="path3249" fill="none" fill-rule="evenodd" stroke="#ef0000" stroke-dasharray="none" stroke-linecap="round" stroke-linejoin="miter" stroke-miterlimit="4" stroke-opacity="1" stroke-width="19.531" d="M 98.55006,79.99909 C 125.48088,81.38016 150.3401,101.40564 150.3401,101.40564"/><path id="path3216" fill="none" fill-rule="evenodd" stroke="#a0a0a0" stroke-dasharray="none" stroke-linecap="square" stroke-linejoin="miter" stroke-miterlimit="4" stroke-opacity="1" stroke-width="7.813" d="M 143.42081,74.71875 L 143.42081,184.09375"/><path id="path3220" fill="#a0a0a0" fill-opacity="1" fill-rule="evenodd" stroke="#a0a0a0" stroke-dasharray="none" stroke-linecap="butt" stroke-linejoin="miter" stroke-miterlimit="4" stroke-opacity="1" stroke-width="7.813" d="M 128.90625,160.65625 L 82.03125,113.78125 L 3.90625,113.78125 L 3.90625,152.84375 C 4.394532,167.24805 9.936524,177.37989 18.359375,184.09375 L 128.90625,184.09375 L 128.90625,160.65625 z"/><path id="path3246" fill="#ef0000" fill-opacity="1" fill-rule="evenodd" stroke="none" stroke-dasharray="none" stroke-dashoffset="0" stroke-linecap="round" stroke-linejoin="miter" stroke-miterlimit="4" stroke-opacity="1" stroke-width="19.531" marker-end="none" marker-mid="none" marker-start="none" d="M 85.41571,76.67186 C 85.41571,83.93072 79.524472,89.82197 72.265621,89.82197 C 65.006774,89.82197 59.115535,83.93072 59.115535,76.67186 C 59.115535,69.41303 65.006774,63.52178 72.265621,63.52178 C 79.524472,63.52178 85.41571,69.41303 85.41571,76.67186 z" display="inline" enable-background="accumulate" opacity="1" overflow="visible" visibility="visible" style="marker:none"/><path id="path3251" fill="none" fill-rule="evenodd" stroke="#ef0000" stroke-dasharray="none" stroke-linecap="round" stroke-linejoin="miter" stroke-miterlimit="4" stroke-opacity="1" stroke-width="11.719" d="M 155.17384,103.47724 C 182.10466,104.85831 176.58038,143.52821 176.58038,143.52821"/><path id="path3253" fill="none" fill-rule="evenodd" stroke="#ef0000" stroke-dasharray="none" stroke-linecap="round" stroke-linejoin="miter" stroke-miterlimit="4" stroke-opacity="1" stroke-width="11.719" d="M 99.08609,80.4577 C 125.39413,86.37918 130.48635,47.65002 130.48635,47.65002"/></svg>