<svg xmlns="http://www.w3.org/2000/svg" xmlns:svg="http://www.w3.org/2000/svg" id="svg2" width="32" height="32" x="0" y="0" enable-background="new 0 0 566.93 566.93" version="1.1" viewBox="0 0 350.5 350.5" xml:space="preserve"><metadata id="metadata52"/><g id="BG" display="none" transform="translate(-85.128,118.5)"><g id="g5" display="inline"><rect id="rect7" width="451.923" height="164.103" x="72.077" y="96.179" fill="#c2b59b"/></g></g><g id="cube" transform="translate(-82.725754,-11.22127)"><g id="g10"><polygon id="polygon12" fill="#00334e" fill-opacity="1" points="104.128 156.743 104.128 217 100.128 215 100.128 154.743"/></g><g id="g14"><polygon id="polygon16" fill="#0080a9" fill-opacity="1" points="147 154.743 151.564 156.743 104.128 156.743 100.128 154.743"/></g><g id="g18"><rect id="rect20" width="47.436" height="60.256" x="104.128" y="156.743" fill="#005475" fill-opacity="1"/></g></g><g id="g23" transform="translate(-82.725754,-11.22127)"><path id="path25" fill="#cdcdcd" fill-opacity="1" d="m 419.128,184.256 c 0,5.5 -4.5,10 -10,10 l -279.125,0 c -5.5,0 -10,-4.5 -10,-10 l 0,-12.052 c 0,-5.5 4.5,-10 10,-10 l 279.125,0 c 5.5,0 10,4.5 10,10 l 0,12.052 z"/></g><g id="g27" transform="translate(-82.725754,-11.22127)"><path id="path29" fill="none" stroke="#a60d13" stroke-opacity="1" stroke-width="3" d="m 419.128,184.256 c 0,5.5 -4.5,10 -10,10 l -279.125,0 c -5.5,0 -10,-4.5 -10,-10 l 0,-12.052 c 0,-5.5 4.5,-10 10,-10 l 279.125,0 c 5.5,0 10,4.5 10,10 l 0,12.052 z"/></g><polygon id="polygon32" fill="#a50e14" fill-opacity="1" points="193.125 161.75 221.5 161.75 190.563 193.25 161.625 193.25" transform="translate(-82.725754,-11.22127)"/><polygon id="polygon34" fill="#a50e14" fill-opacity="1" points="120.003 184.247 142.5 161.75 170.875 161.75 139.938 193.25 125.25 193.25" transform="translate(-82.725754,-11.22127)"/><polygon id="polygon36" fill="#a50e14" fill-opacity="1" points="243.125 161.75 271.5 161.75 240.563 193.25 211.625 193.25" transform="translate(-82.725754,-11.22127)"/><polygon id="polygon38" fill="#a50e14" fill-opacity="1" points="293.25 161.75 321.625 161.75 290.688 193.25 261.75 193.25" transform="translate(-82.725754,-11.22127)"/><polygon id="polygon40" fill="#a50e14" fill-opacity="1" points="342.75 161.75 371.125 161.75 340.188 193.25 311.25 193.25" transform="translate(-82.725754,-11.22127)"/><polygon id="polygon42" fill="#a50e14" fill-opacity="1" points="393.25 161.75 410 161.75 417.064 166.394 390.688 193.25 361.75 193.25" transform="translate(-82.725754,-11.22127)"/><polygon id="polygon44" fill="#ed1c24" points="442.5 162.48 410.875 162.48 439.938 193.98 411 193.98" display="none" transform="translate(-82.725754,-11.22127)"/><polygon id="polygon46" fill="#ed1c24" points="412.5 193.98 400.875 193.98 419.128 175.728 418.25 189.625" display="none" transform="translate(-82.725754,-11.22127)"/></svg>