<svg xmlns="http://www.w3.org/2000/svg" xmlns:svg="http://www.w3.org/2000/svg" id="symbol-bureau-de-change" width="16" height="16" version="1.0"><metadata id="metadata29"/><g id="g17242" transform="translate(-0.1141925,-47.972181)"><g id="g17334"><g id="g2438"><rect id="rect16604" width="14.958" height="14.915" x=".637" y="48.535" fill="#fff" fill-opacity="1" stroke="#19008e" stroke-dasharray="none" stroke-linecap="round" stroke-linejoin="bevel" stroke-miterlimit="4" stroke-opacity="1" stroke-width="1.045"/><g id="g2433"><path id="path17155" fill="#19008e" fill-opacity="1" stroke="#76727e" stroke-dasharray="none" stroke-linecap="round" stroke-linejoin="bevel" stroke-miterlimit="4" stroke-opacity="1" stroke-width="1.282" d="M 13.403099,3.7840113 A 7.3965516,7.3965516 0 1 1 13.380389,3.693948" transform="matrix(0.415209,0,0,0.4175176,2.3023187,50.36814)"/><text id="text17167" x="3.705" y="52.905" fill="#fff" fill-opacity="1" stroke="none" stroke-linecap="butt" stroke-linejoin="miter" stroke-opacity="1" stroke-width="1" font-family="Bitstream Vera Sans" font-size="4.81" font-style="normal" font-weight="normal" transform="scale(0.9728108,1.0279491)" xml:space="preserve"><tspan id="tspan17169" x="3.705" y="52.905" fill="#e0e0e0" fill-opacity="1">£</tspan></text></g><g id="g17353" transform="matrix(0.4422092,0,0,0.4672733,-1.2045273,34.182867)"><path id="path17355" fill="#19008e" fill-opacity="1" stroke="#76727e" stroke-dasharray="none" stroke-linecap="round" stroke-linejoin="bevel" stroke-miterlimit="4" stroke-opacity="1" stroke-width="1.282" d="M 13.403099,3.7840113 A 7.3965516,7.3965516 0 1 1 13.380389,3.693948" opacity="1" transform="matrix(0.9389425,0,0,0.893519,7.9477824,48.41716)"/><text id="text17357" x="9.837" y="56.995" fill="#fff" fill-opacity="1" stroke="none" stroke-linecap="butt" stroke-linejoin="miter" stroke-opacity="1" stroke-width="1" font-family="Bitstream Vera Sans" font-size="10.581" font-style="normal" font-weight="normal" xml:space="preserve"><tspan id="tspan17359" x="9.837" y="56.995" fill="#e0e0e0" fill-opacity="1">€</tspan></text></g><g id="g17361" transform="matrix(0.4708471,0,0,0.4975345,5.0060161,32.776251)"><g id="g18670" transform="matrix(0.9391778,0,0,0.9391778,0.3980803,2.8271725)"><path id="path17363" fill="#19008e" fill-opacity="1" stroke="#76727e" stroke-dasharray="none" stroke-dashoffset=".385" stroke-linecap="round" stroke-linejoin="bevel" stroke-miterlimit="4" stroke-opacity="1" stroke-width="1.282" marker-start="none" d="M 13.403099,3.7840113 A 7.3965516,7.3965516 0 1 1 13.380389,3.693948" opacity="1" transform="matrix(0.9389425,0,0,0.893519,7.9477824,48.41716)"/><text id="text17365" x="8.61" y="57.725" fill="#fff" fill-opacity="1" stroke="none" stroke-linecap="butt" stroke-linejoin="miter" stroke-opacity="1" stroke-width="1" font-family="Bitstream Vera Sans" font-size="10.581" font-style="normal" font-weight="normal" xml:space="preserve"><tspan id="tspan17367" x="8.61" y="57.725" fill="#e0e0e0" fill-opacity="1">￥</tspan></text></g></g><g id="g2425"><path id="path17371" fill="#19008e" fill-opacity="1" stroke="#76727e" stroke-dasharray="none" stroke-linecap="round" stroke-linejoin="bevel" stroke-miterlimit="4" stroke-opacity="1" stroke-width="1.282" d="M 13.403099,3.7840113 A 7.3965516,7.3965516 0 1 1 13.380389,3.693948" transform="matrix(0.415209,0,0,0.4175176,8.7080334,50.366857)"/><text id="text17373" x="10.29" y="52.945" fill="#fff" fill-opacity="1" stroke="none" stroke-linecap="butt" stroke-linejoin="miter" stroke-opacity="1" stroke-width="1" font-family="Bitstream Vera Sans" font-size="4.81" font-style="normal" font-weight="normal" transform="scale(0.9728108,1.0279491)" xml:space="preserve"><tspan id="tspan17375" x="10.29" y="52.945" fill="#e0e0e0" fill-opacity="1">$</tspan></text></g></g></g></g></svg>