<svg xmlns="http://www.w3.org/2000/svg" xmlns:svg="http://www.w3.org/2000/svg" id="svg3882" width="24" height="24" version="1.1"><metadata id="metadata3887"/><g id="layer1" transform="translate(0,-1028.3622)"><path id="rect4465" fill="#909090" fill-opacity="1" fill-rule="evenodd" stroke="none" d="M 6 3 L 5 4 L 5 6 L 5 10 L 6 10 L 6 24 L 19 24 L 19 10 L 20 10 L 20 6 L 20 4 L 19 3 L 18 4 L 18 6 L 17 6 L 17 4 L 16 3 L 15 4 L 15 6 L 14 6 L 14 4 L 12.5 3 L 11 4 L 11 6 L 10 6 L 10 4 L 9 3 L 8 4 L 8 6 L 7 6 L 7 4 L 6 3 z M 10 10 C 10.552285 10 11 10.4477 11 11 L 11 14 L 9 14 L 9 11 C 9 10.4477 9.4477152 10 10 10 z M 15 10 C 15.552285 10 16 10.4477 16 11 L 16 14 L 14 14 L 14 11 C 14 10.4477 14.447715 10 15 10 z" transform="translate(0,1028.3622)"/></g></svg>