<svg xmlns="http://www.w3.org/2000/svg" xmlns:svg="http://www.w3.org/2000/svg" id="symbol-gymnastics-borderless" width="38" height="38" version="1.0" viewBox="0 0 300 300"><metadata id="metadata12"/><path id="path2387" fill="#909090" fill-opacity="1" fill-rule="evenodd" stroke="none" stroke-linecap="butt" stroke-linejoin="miter" stroke-opacity="1" stroke-width="1" d="M 142.10734,83.91085 C 142.11038,92.840056 134.87265,100.08023 125.9434,100.08023 C 117.01416,100.08023 109.77643,92.840056 109.77947,83.91085 C 109.77643,74.9816 117.01416,67.74141 125.9434,67.74141 C 134.87265,67.74141 142.11038,74.9816 142.10734,83.91085 L 142.10734,83.91085 z"/><path id="path2383" fill="none" fill-opacity="1" fill-rule="evenodd" stroke="#909090" stroke-dasharray="none" stroke-linecap="round" stroke-linejoin="miter" stroke-miterlimit="4" stroke-opacity="1" stroke-width="31.579" d="M 149.85669,118.26878 C 164.00763,132.41972 165.42631,153.13772 150.14329,178.04338"/><path id="path3157" fill="none" fill-opacity="1" fill-rule="evenodd" stroke="#909090" stroke-dasharray="none" stroke-linecap="round" stroke-linejoin="round" stroke-miterlimit="4" stroke-opacity="1" stroke-width="19.737" d="M 142.6415,184.94852 L 113.78657,188.92784 L 79.245291,180.42022"/><path id="path3159" fill="none" fill-opacity="1" fill-rule="evenodd" stroke="#909090" stroke-dasharray="none" stroke-linecap="round" stroke-linejoin="round" stroke-miterlimit="4" stroke-opacity="1" stroke-width="15.789" d="M 215.38225,95.396218 L 191.54911,118.32771 L 155.52851,118.21357"/><path id="path2388" fill="none" fill-opacity="1" fill-rule="evenodd" stroke="#909090" stroke-dasharray="none" stroke-linecap="round" stroke-linejoin="round" stroke-miterlimit="4" stroke-opacity="1" stroke-width="19.737" d="M 157.3585,183.8335 L 186.21343,179.85418 L 220.75471,188.3618"/><path id="path2390" fill="none" fill-opacity="1" fill-rule="evenodd" stroke="#909090" stroke-dasharray="none" stroke-linecap="round" stroke-linejoin="round" stroke-miterlimit="4" stroke-opacity="1" stroke-width="15.789" d="M 89.302099,140.96922 L 113.13523,118.03771 L 149.15584,118.15185"/></svg>