<svg xmlns="http://www.w3.org/2000/svg" xmlns:svg="http://www.w3.org/2000/svg" id="symbol-helipad" width="37.28" height="37.28" version="1.1" viewBox="0 0 700 700"><metadata id="metadata35"/><path id="path9" fill="#a0a0a0" fill-opacity="1" fill-rule="nonzero" stroke="none" d="M 5.5898438 11.335938 C 3.7608917 11.335938 2.265409 12.665743 2.2539062 14.300781 C 2.265409 15.935819 3.7608917 17.264125 5.5898438 17.253906 C 7.4418017 17.264125 8.9372843 15.935819 8.9257812 14.300781 C 8.9372843 12.665743 7.4418017 11.335937 5.5898438 11.335938 z M 5.5898438 12.410156 C 6.7746373 12.410156 7.71875 13.258445 7.71875 14.300781 C 7.71875 15.343118 6.7746373 16.179688 5.5898438 16.179688 C 4.4280567 16.179688 3.4746094 15.343118 3.4746094 14.300781 C 3.4746094 13.258445 4.4280567 12.410156 5.5898438 12.410156 z" transform="scale(18.776825,18.776825)"/><path id="path13" fill="#a0a0a0" fill-opacity="1" fill-rule="nonzero" stroke="none" d="m 306.48952,446.77015 c -47.7331,0 -47.7331,57.18027 0,57.18027 l 276.89518,0 c 46.43719,0 46.43719,-57.18027 0,-57.18027 l -276.89518,0 z"/><polygon id="polygon15" fill="#a0a0a0" fill-opacity="1" fill-rule="nonzero" stroke="none" points="321.89 163.85 301.55 163.85 301.55 212.63 321.89 212.63 321.89 212.63" transform="matrix(1.1999271,0,0,1.0660006,1.8880147,23.237473)"/><polygon id="polygon17" fill="#a0a0a0" fill-opacity="1" fill-rule="nonzero" stroke="none" points="353.57 154.67 270.41 154.67 270.41 165.11 353.57 165.11 353.57 165.11" transform="matrix(1.1999271,0,0,1.0660006,1.8880147,23.237473)"/><path id="path19" fill="#a0a0a0" fill-opacity="1" fill-rule="nonzero" stroke="none" d="m 434.78573,180.44057 159.61431,0 c 21.3827,0 21.3827,27.0551 0,27.0551 l -159.61431,0 c -20.73474,0 -20.73474,-27.0551 0,-27.0551 z"/><path id="path21" fill="#a0a0a0" fill-opacity="1" fill-rule="nonzero" stroke="none" d="m 158.10653,180.44057 157.88641,0 c 21.3827,0 21.3827,27.0551 0,27.0551 l -157.88641,0 c -22.46264,0 -22.89461,-27.0551 0,-27.0551 z"/><path id="path23" fill="#a0a0a0" fill-opacity="1" fill-rule="nonzero" stroke="none" d="m 331.32801,409.92917 c -20.51875,0 -30.67014,-13.23973 -34.12593,-24.56065 L 281.21905,349.67882 98.710138,285.20711 c -22.030667,-7.48333 -16.630995,-36.6491 8.423482,-36.6491 l 396.11995,0 c 44.06133,0 68.68383,23.60125 80.13113,48.54566 l 31.75008,68.69308 c 11.4473,23.60125 -7.77553,44.13242 -36.2858,44.13242 l -247.52097,0 z"/><polygon id="polygon25" fill="#fff" fill-rule="nonzero" stroke="none" points="357.89 232.07 322.25 232.07 322.25 289.13 357.89 289.13 357.89 289.13" transform="matrix(1.1999271,0,0,1.0660006,1.8880147,23.237473)"/><polygon id="polygon27" fill="#fff" fill-rule="nonzero" stroke="none" points="414.23 289.13 378.95 289.13 378.95 232.07 414.23 232.07 414.23 232.07" transform="matrix(1.1999271,0,0,1.0660006,1.8880147,23.237473)"/><path id="path29" fill="#fff" fill-rule="nonzero" stroke="none" d="m 524.85226,273.11866 c 13.1752,2.8782 26.3504,13.43161 34.98987,30.70082 l 13.60718,27.82261 -48.59705,0 0,-58.52343 z"/></svg>