<svg xmlns="http://www.w3.org/2000/svg" xmlns:svg="http://www.w3.org/2000/svg" id="hotel" width="24" height="24" fill="#000" fill-opacity="1" stroke="#000" stroke-miterlimit="4" stroke-width="1" version="1.1" viewBox="0 0 115.88 115.88"><title id="title3008">Hotel Map Icon</title><metadata id="metadata9"/><rect id="rect2988" width="2" height="12" x="2" y="8" fill="#909090" fill-opacity="1" stroke="none" transform="scale(4.8283262,4.8283262)"/><path id="path2990" fill="#909090" fill-opacity="1" stroke="none" d="m 4,20 a 1,1 0 1 1 -2,0 1,1 0 1 1 2,0 z" transform="scale(4.8283262,4.8283262)"/><path id="path2992" fill="#909090" fill-opacity="1" stroke="none" d="M 4,8 A 1,1 0 1 1 2,8 1,1 0 1 1 4,8 z" transform="scale(4.8283262,4.8283262)"/><rect id="rect2994" width="9.657" height="38.627" x="96.567" y="57.94" fill="#909090" fill-opacity="1" stroke="none"/><path id="path2996" fill="#909090" fill-opacity="1" stroke="none" d="m 4,20 a 1,1 0 1 1 -2,0 1,1 0 1 1 2,0 z" transform="matrix(4.8283262,0,0,4.8283262,86.909873,0)"/><path id="path2998" fill="#909090" fill-opacity="1" stroke="none" d="M 4,8 A 1,1 0 1 1 2,8 1,1 0 1 1 4,8 z" transform="matrix(4.8283262,0,0,4.8283262,86.909873,19.313305)"/><rect id="rect3000" width="17" height="2" x="3" y="14" fill="#909090" fill-opacity="1" stroke="none" transform="scale(4.8283262,4.8283262)"/><rect id="rect3006" width="28.97" height="14.485" x="24.142" y="48.283" fill="#909090" fill-opacity="1" stroke="none" ry="4.828"/></svg>