<svg xmlns="http://www.w3.org/2000/svg" xmlns:svg="http://www.w3.org/2000/svg" id="symbol-parking" width="24" height="24" version="1.1"><metadata id="metadata11"/><rect id="rect2987" width="22" height="22" x="1" y="1" fill="silver" fill-opacity="1" stroke="none" rx="4.4" ry="4.4"/><rect id="rect2985" width="20" height="20" x="2" y="2" fill="#002a84" fill-opacity="1" stroke="none" rx="4" ry="4"/><rect id="rect2996" width="3" height="9" x="10.5" y="10" fill="silver" fill-opacity="1" stroke="none"/><path id="path3090" fill="silver" fill-opacity="1" stroke="none" d="m 13,8.5 a 1.5,1.5 0 1 1 -3,0 1.5,1.5 0 1 1 3,0 z" transform="matrix(1.2,0,0,1.2666667,-1.8,-3.866667)"/><path id="rect2988" fill="silver" fill-opacity="1" stroke="none" d="m 9,10 4,0 0,1 -2,1 -2,-1 z"/><path id="rect2990" fill="silver" fill-opacity="1" stroke="none" d="m 9,18 2,-1 2,0 2,1 0,1 -6,0 z"/></svg>