<svg xmlns="http://www.w3.org/2000/svg" xmlns:svg="http://www.w3.org/2000/svg" id="symbol-kindergarten" width="24" height="24" version="1.0" viewBox="0 0 566.524 566.524"><title id="title3798">Kindergarden Map Icon</title><metadata id="metadata14"/><path id="path2984" fill="#909090" fill-opacity="1" stroke="none" d="m 283.26181,259.65666 0,259.65666 -212.446357,-94.4206 0,-259.65666 z"/><path id="path2986" fill="#909090" fill-opacity="1" stroke="none" d="m 306.86696,259.65666 0,259.65666 212.44636,-94.42061 0,-259.65666 z"/><path id="path2990" fill="#909090" fill-opacity="1" stroke="none" d="M 519.31332,141.63091 295.06439,47.210302 70.815453,141.63091 295.06439,236.05151 z"/><text id="text3760" x="220.761" y="33.008" fill="silver" fill-opacity="1" stroke="none" font-family="Sans" font-size="708.36" font-style="normal" font-weight="normal" letter-spacing="0" transform="matrix(0.87780892,0.55264251,-0.86492336,0.59466994,0,0)" word-spacing="0" xml:space="preserve" style="line-height:125%"><tspan id="tspan3762" x="220.761" y="33.008" fill="silver" fill-opacity="1" font-size="247.926">c</tspan></text><text id="text3787" x="100.66" y="338.925" fill="silver" fill-opacity="1" stroke="none" font-family="Sans" font-size="885.684" font-style="normal" font-weight="normal" letter-spacing="0" transform="matrix(0.93801943,0.39705894,0,1.066076,0,0)" word-spacing="0" xml:space="preserve" style="line-height:125%"><tspan id="tspan3789" x="100.66" y="338.925" fill="silver" fill-opacity="1" font-size="265.705">A</tspan></text><g id="text3791" fill="silver" fill-opacity="1" stroke="none" font-family="Sans" font-size="228.887" font-style="normal" font-weight="normal" letter-spacing="0" transform="matrix(1.0233327,-0.48551779,0,0.97719935,0,0)" word-spacing="0" style="line-height:125%"><path id="path2993" fill="silver" fill-opacity="1" d="m 457.42993,590.66651 c -1.1e-4,-15.12493 -3.12942,-26.97161 -9.38794,-35.54005 -6.18421,-8.64276 -14.7153,-12.96418 -25.5933,-12.96429 -10.87815,1.1e-4 -19.4465,4.32153 -25.70507,12.96429 -6.18416,8.56844 -9.27621,20.41512 -9.27617,35.54005 -4e-5,15.12505 3.09201,27.00898 9.27617,35.6518 6.25857,8.56838 14.82692,12.85255 25.70507,12.85254 10.878,10e-6 19.40909,-4.28416 25.5933,-12.85254 6.25852,-8.64282 9.38783,-20.52675 9.38794,-35.6518 m -53.64536,-60.23926 c 6.6311,-3.65074 14.52888,-5.47617 23.69337,-5.4763 15.19942,1.3e-4 27.53039,6.03522 36.99294,18.10531 9.53682,12.0703 14.3053,27.94037 14.30543,47.61025 -1.3e-4,19.67 -4.76861,35.54007 -14.30543,47.61025 -9.46255,12.07021 -21.79352,18.1053 -36.99294,18.1053 -9.16449,0 -17.06227,-1.78818 -23.69337,-5.36453 -6.5567,-3.65086 -7.32526,-6.88115 -11.64664,-14.3319 l 0,17.10912 -25.3463,-0.65376 2.27936,-204.05433 23.06694,11.46072 0,72.46776"/></g></svg>