<svg xmlns="http://www.w3.org/2000/svg" xmlns:svg="http://www.w3.org/2000/svg" xmlns:xlink="http://www.w3.org/1999/xlink" id="symbol-lighthouse" width="16" height="16" version="1.0"><metadata id="metadata23"/><defs id="defs4"><linearGradient id="linearGradient7998"><stop id="stop8000" offset="0" stop-color="#fffd2d" stop-opacity="1"/><stop id="stop8002" offset="1" stop-color="#fff" stop-opacity="0"/></linearGradient><linearGradient id="linearGradient8004" x1="-55.104" x2="176.37" y1="1.569" y2="99.852" gradientUnits="userSpaceOnUse" xlink:href="#linearGradient7998"/><linearGradient id="linearGradient12871" x1="59.917" x2="262.248" y1="30.272" y2="88" gradientUnits="userSpaceOnUse" xlink:href="#linearGradient7998"/></defs><g id="g3249" transform="matrix(8.1354145e-2,0,0,8.1354145e-2,-0.1135914,-0.5009919)"><g id="g3205" transform="translate(60.173159,3.8961039)"><path id="path10923" fill="none" fill-opacity="1" fill-rule="evenodd" stroke="none" stroke-linecap="butt" stroke-linejoin="miter" stroke-opacity="1" stroke-width="1" d="M 13.8,149.5 L 10,185 L 70,185 L 66.2,149.5 L 13.8,149.5 z"/><path id="path10921" fill="#a0a0a0" fill-opacity="1" fill-rule="evenodd" stroke="none" stroke-linecap="butt" stroke-linejoin="miter" stroke-opacity="1" stroke-width="1" d="M 17.55,114.5 L 13.8,149.5 L 66.2,149.5 L 62.45,114.5 L 17.55,114.5 z"/><path id="path10919" fill="none" fill-opacity="1" fill-rule="evenodd" stroke="none" stroke-linecap="butt" stroke-linejoin="miter" stroke-opacity="1" stroke-width="1" d="M 21.3,79.5 L 17.55,114.5 L 62.45,114.5 L 58.7,79.5 L 21.3,79.5 z"/><path id="path10917" fill="#a0a0a0" fill-opacity="1" fill-rule="evenodd" stroke="none" stroke-linecap="butt" stroke-linejoin="miter" stroke-opacity="1" stroke-width="1" d="M 25,45 L 21.3,79.5 L 58.7,79.5 L 55,45 L 25,45 z"/><rect id="rect2166" width="72" height="12" x="4" y="184" fill="#a0a0a0" fill-opacity="1" stroke="none" stroke-dasharray="none" stroke-linecap="butt" stroke-linejoin="round" stroke-miterlimit="4" stroke-opacity="1" stroke-width="1" rx="1.928" ry="1.639"/><rect id="rect3139" width="40" height="5" x="20" y="40" fill="#a0a0a0" fill-opacity="1" stroke="none" stroke-dasharray="none" stroke-linecap="butt" stroke-linejoin="round" stroke-miterlimit="4" stroke-opacity="1" stroke-width="1" rx=".511" ry=".529"/><rect id="rect3141" width="32.008" height="20" x="23.992" y="19.994" fill="none" fill-opacity="1" stroke="none" stroke-dasharray="none" stroke-linecap="butt" stroke-linejoin="round" stroke-miterlimit="4" stroke-opacity="1" stroke-width="1.033" rx="0" ry="0"/><path id="path3143" fill="#a0a0a0" fill-opacity="1" fill-rule="evenodd" stroke="none" stroke-linecap="butt" stroke-linejoin="round" stroke-opacity="1" stroke-width="1" d="M 40,5 L 20,20 L 60,20 L 40,5 z"/></g><path id="path3221" fill="#a0a0a0" fill-opacity="1" fill-rule="evenodd" stroke="none" stroke-linecap="butt" stroke-linejoin="miter" stroke-opacity="1" stroke-width="1" d="M 123.37662,34.199134 L 197.83549,58.008658 L 197.40259,6.9264069 L 123.37662,34.199134 z"/><path id="path3223" fill="#a0a0a0" fill-opacity="1" fill-rule="evenodd" stroke="none" stroke-linecap="butt" stroke-linejoin="miter" stroke-opacity="1" stroke-width="1" d="M 76.623378,34.199135 L 2.1645041,58.008661 L 2.5974041,6.9264067 L 76.623378,34.199135 z"/></g></svg>