<svg xmlns="http://www.w3.org/2000/svg" xmlns:svg="http://www.w3.org/2000/svg" id="symbol-parking_roof_fee-permissive" width="36" height="18" version="1.0"><metadata id="metadata20"/><g id="parking_roof_fee" transform="matrix(0.5,0,0,0.5,-40,-20)"><rect id="rect4443" width="72" height="36" x="80" y="40" fill="#828282" fill-opacity="1" rx="2" ry="2"/><path id="path4447" fill="#e0e0e0" fill-opacity="1" d="M 118.5,73.76 L 149.5,73.76 C 149.77614,73.76 150,73.536142 150,73.26 L 150,42.26 C 150,41.983858 149.77614,41.76 149.5,41.76 L 118.5,41.76 C 118.22386,41.76 118,41.983858 118,42.26 L 118,73.26 C 118,73.536142 118.22386,73.76 118.5,73.76 z"/><path id="path4449" fill="#828282" fill-opacity="1" d="M 120,71.76 L 120,43.76 L 148,43.76 L 148,71.76 L 120,71.76 z"/><g id="g4451" transform="matrix(0.922587,0,0,0.922587,84.170114,4.4683601)"><rect id="rect4453" width="23.349" height="11.674" x="46.746" y="44.002" fill="#aaa" fill-opacity="1" stroke="#e0e0e0" stroke-dasharray="none" stroke-miterlimit="4" stroke-opacity="1" stroke-width="1.075" transform="matrix(0.9948298,0.1015563,-0.1015563,0.9948298,0,0)"/><path id="path4455" fill="#aaa" fill-opacity="1" stroke="#e0e0e0" stroke-dasharray="none" stroke-miterlimit="4" stroke-opacity="1" stroke-width="7.6" d="M 411.42859 375.87302 A 46.984127 46.984127 0 1 1 317.46033,375.87302 A 46.984127 46.984127 0 1 1 411.42859 375.87302 z" transform="matrix(0.1272924,0,0,0.1272924,14.568602,12.069448)"/><text font-family="Myriad Pro" style="text-align:start;line-height:125%" id="text4457" x="58.128" y="63.269" fill="#e0e0e0" fill-opacity="1" stroke="#e0e0e0" stroke-linecap="butt" stroke-linejoin="miter" stroke-opacity="1" stroke-width=".141" font-size="9.665" font-stretch="normal" font-style="normal" font-variant="normal" font-weight="bold" text-anchor="start" writing-mode="lr-tb" xml:space="preserve"><tspan id="tspan4459" x="58.128" y="63.269" fill="#e0e0e0" fill-opacity="1" stroke="#e0e0e0" stroke-opacity="1" stroke-width=".141">2</tspan></text><path id="path4461" fill="#aaa" fill-opacity="1" stroke="#e0e0e0" stroke-dasharray="none" stroke-miterlimit="4" stroke-opacity="1" stroke-width="7.6" d="M 411.42859 375.87302 A 46.984127 46.984127 0 1 1 317.46033,375.87302 A 46.984127 46.984127 0 1 1 411.42859 375.87302 z" transform="matrix(9.8999267e-2,0,0,9.8999267e-2,18.414082,25.218524)"/><text font-family="Myriad Pro" style="text-align:start;line-height:125%" id="text4463" x="52.545" y="64.743" fill="#e0e0e0" fill-opacity="1" stroke="#fff" stroke-linecap="butt" stroke-linejoin="miter" stroke-opacity="1" stroke-width=".141" font-size="7.117" font-stretch="normal" font-style="normal" font-variant="normal" font-weight="bold" text-anchor="start" writing-mode="lr-tb" xml:space="preserve"><tspan id="tspan4465" x="52.545" y="64.743" fill="#e0e0e0" fill-opacity="1" stroke-width=".141">1</tspan></text></g><path id="path4560" fill="#e0e0e0" fill-opacity="1" d="M 96.181368,64.062684 L 96.231738,71.870441 L 89.548973,71.870441 L 89.548973,50.378121 L 98.699998,50.378121 C 100.96677,50.378121 102.72981,50.629985 103.90517,51.133711 C 105.16449,51.721391 106.08798,52.476981 106.75962,53.568388 C 107.43125,54.659794 107.68312,55.91911 107.85103,57.26238 C 107.85103,59.277285 107.09544,60.956372 105.66821,62.215688 C 104.24099,63.391049 102.31004,64.062684 99.959318,64.062684 L 96.265328,64.062684 L 96.181368,64.062684 z M 96.097418,59.445194 L 98.364178,59.445194 C 100.29513,59.445194 101.21863,58.689604 101.21863,57.094471 C 101.21863,56.003064 100.37909,55.331429 98.532088,55.331429 L 96.130998,55.331429 L 96.097418,59.445194 z"/><path id="path4562" fill="#e0e0e0" fill-opacity="1" fill-rule="evenodd" stroke="none" stroke-linecap="butt" stroke-linejoin="miter" stroke-opacity="1" stroke-width="1" d="M 98.276478,42.598089 L 86.167828,45.255891 L 86.167828,48.932056 L 98.276478,46.276769 L 110.38181,48.932056 L 110.38181,45.255891 L 98.276478,42.598089 z"/></g></svg>