<svg xmlns="http://www.w3.org/2000/svg" xmlns:svg="http://www.w3.org/2000/svg" id="hospital" width="24" height="24" fill="none" stroke="#e60202" stroke-width="3" version="1.1" viewBox="0 0 22.4 22.4"><title id="title2987">Pharmacy Map Icon</title><metadata id="metadata11"/><path id="path2990" fill="green" fill-opacity="1" stroke="none" d="M 12 2 C 6.4771525 2 2 6.4771525 2 12 C 2 17.522847 6.4771525 22 12 22 C 17.522847 22 22 17.522847 22 12 C 22 6.4771525 17.522847 2 12 2 z M 12 4 C 16.418278 4 20 7.581722 20 12 C 20 16.418278 16.418278 20 12 20 C 7.581722 20 4 16.418278 4 12 C 4 7.581722 7.581722 4 12 4 z M 10 6 L 10 10 L 6 10 L 6 14 L 10 14 L 10 18 L 14 18 L 14 14 L 18 14 L 18 10 L 14 10 L 14 6 L 10 6 z" transform="scale(0.93333333,0.93333333)"/></svg>