<svg xmlns="http://www.w3.org/2000/svg" xmlns:svg="http://www.w3.org/2000/svg" id="svg2" width="182.44" height="182.44" x="0" y="0" enable-background="new 0 0 510.24 283.46" version="1.1" viewBox="0 0 182.44 182.44" xml:space="preserve"><metadata id="metadata16"/><g id="g2993"><path id="path4" fill="#909090" fill-opacity="1" d="M 125.42455,28.358 H 57.499548 V 16.324 c 0,-3.493 2.831,-6.324 6.324,-6.324 h 55.277002 c 3.493,0 6.324,2.831 6.324,6.324 v 12.034 z"/><path id="path6" fill="#909090" fill-opacity="1" d="m 125.42455,36.956 c 0,18.757 -15.206,39.962 -33.962002,39.962 -18.756,0 -33.962,-21.206 -33.962,-39.962 23.651,0 45.029002,0 67.924002,0 z"/><path id="path8" fill="#909090" fill-opacity="1" d="M 50.722656 83.939453 C 44.461657 83.939453 39.384766 89.518438 39.384766 96.398438 L 39.384766 159.98242 C 39.384766 166.86342 44.460657 172.43945 50.722656 172.43945 L 60.634766 172.43945 L 117.42383 83.939453 L 50.722656 83.939453 z M 132.79688 83.939453 C 133.15261 83.939453 133.50224 83.962828 133.84961 83.998047 L 133.88477 83.939453 L 132.79688 83.939453 z M 133.84961 83.998047 L 79.384766 172.43945 L 132.79688 172.43945 C 139.05887 172.43945 144.13477 166.86342 144.13477 159.98242 L 144.13477 96.398438 C 144.13477 89.909281 139.61694 84.582785 133.84961 83.998047 z" transform="translate(-7.629395e-6,0)"/></g></svg>