<svg xmlns="http://www.w3.org/2000/svg" xmlns:svg="http://www.w3.org/2000/svg" xmlns:xlink="http://www.w3.org/1999/xlink" id="pub" width="24" height="24" version="1.1" viewBox="0 0 995.708 995.708"><title id="title2989">Pub Map Icon</title><metadata id="metadata17"/><path id="path3038" fill="#000094" fill-opacity="1" stroke="none" d="m 207.43921,-207.43921 c 0,45.8262 -37.14948,82.97568 -82.97569,82.97568 -45.826199,0 -82.975679,-37.14948 -82.975679,-82.97568 0,-45.8262 37.14948,-82.97568 82.975679,-82.97568 45.82621,0 82.97569,37.14948 82.97569,82.97568 z"/><use id="use3042" width="995.708" height="995.708" x="0" y="0" fill="#000094" transform="translate(82.975677,-82.975678)" xlink:href="#path3038"/><use id="use3046" width="995.708" height="995.708" x="0" y="0" fill="#000094" transform="translate(248.92704,-82.975678)" xlink:href="#path3038"/><use id="use3050" width="995.708" height="995.708" x="0" y="0" fill="#000094" transform="translate(414.8784,-82.975678)" xlink:href="#path3038"/><use id="use3054" width="995.708" height="995.708" x="0" y="0" fill="#000094" transform="translate(497.85408,4.9999996e-7)" xlink:href="#path3038"/><rect id="rect3079" width="2" height="1" x="4" y="-7" fill="#000094" fill-opacity="1" stroke="none" transform="scale(41.487841,41.487841)"/><path id="rect2990" fill="#909090" fill-opacity="1" stroke="none" d="M 12 7 L 10.3125 8 L 8.15625 8 C 6.9559165 8 6 6.9901462 6 8.15625 L 6 9.125 C 5.3123393 9.1444418 4.6271197 9.1867936 3.96875 9.40625 C 3.479908 9.5691975 2.9797615 9.8251279 2.625 10.28125 C 2.2702386 10.737372 2.09375 11.35 2.09375 12 L 2.09375 16 C 2.09375 16.575 2.170219 17.090439 2.40625 17.5625 C 2.6422807 18.034561 3.065071 18.407278 3.53125 18.59375 C 4.2229406 18.870426 5.0469768 18.873739 6 18.875 L 6 20.90625 C 6 22.072354 6.9559165 23 8.15625 23 L 16.84375 23 C 18.044083 23 19 22.072354 19 20.90625 L 19 8.15625 C 19 6.9901462 18.044083 8 16.84375 8 L 13 7 L 12 7 z M 8 9 L 9 9 L 9 21 L 8 21 L 8 9 z M 10 9 L 11 9 L 11 21 L 10 21 L 10 9 z M 12 9 L 13 9 L 13 21 L 12 21 L 12 9 z M 14 9 L 15 9 L 15 21 L 14 21 L 14 9 z M 16 9 L 17 9 L 17 21 L 16 21 L 16 9 z M 5.59375 10.9375 C 5.7170152 10.9302 5.8678932 10.9416 6 10.9375 L 6 17.0625 C 5.1248155 17.038273 4.4502311 16.998843 4.21875 16.90625 C 4.0599288 16.842722 4.0452195 16.840439 4 16.75 C 3.9547807 16.659561 3.90625 16.425 3.90625 16 L 3.90625 12 C 3.90625 11.65 3.979761 11.512628 4.0625 11.40625 C 4.145239 11.299872 4.270092 11.180803 4.53125 11.09375 C 4.792408 11.0067 5.166852 10.962612 5.59375 10.9375 z" transform="scale(41.487841,41.487841)"/><path id="path3784" fill="silver" fill-opacity="1" stroke="#909090" stroke-dasharray="none" stroke-miterlimit="4" stroke-opacity="1" stroke-width="1.3" d="m 19,5 a 3,3 0 1 1 -6,0 3,3 0 1 1 6,0 z" transform="scale(41.487841,41.487841)"/><path id="path3788" fill="silver" fill-opacity="1" stroke="#909090" stroke-dasharray="none" stroke-miterlimit="4" stroke-opacity="1" stroke-width="1.3" d="m 19,5 a 3,3 0 1 1 -6,0 3,3 0 1 1 6,0 z" transform="matrix(41.487841,0,0,41.487841,-290.41488,4.9999994e-7)"/><path id="path3790" fill="silver" fill-opacity="1" stroke="#909090" stroke-dasharray="none" stroke-miterlimit="4" stroke-opacity="1" stroke-width="1.95" d="m 19,5 a 3,3 0 1 1 -6,0 3,3 0 1 1 6,0 z" transform="matrix(27.658561,0,0,27.658561,76.061048,69.146397)"/><path id="path3792" fill="silver" fill-opacity="1" stroke="#909090" stroke-dasharray="none" stroke-miterlimit="4" stroke-opacity="1" stroke-width="1.95" d="m 19,5 a 3,3 0 1 1 -6,0 3,3 0 1 1 6,0 z" transform="matrix(27.658561,0,0,27.658561,-193.60993,110.63424)"/><path id="path3794" fill="silver" fill-opacity="1" stroke="#909090" stroke-dasharray="none" stroke-miterlimit="4" stroke-opacity="1" stroke-width="1.8" d="m 19,5 a 3,3 0 1 1 -6,0 3,3 0 1 1 6,0 z" transform="matrix(27.658561,0,0,27.658561,345.73201,110.63424)"/></svg>