<svg xmlns="http://www.w3.org/2000/svg" xmlns:svg="http://www.w3.org/2000/svg" id="symbol-railway-crossing" width="32.62" height="32.62" version="1.1" viewBox="0 0 600 600"><metadata id="metadata13"/><g id="g3" transform="translate(50,150)"><path id="path5" fill="#b00000" fill-opacity="1" d="M1.5,4.5l66,1.5l190,91.4L456,0l63,4.5l-15,48 l-184.5,87l175.5,81l15,51l-58.5,6l-193.5-99c0,0-189,96-193.5,99S0,279,0,279l6-51l172.5-85.5L12,63L1.5,4.5z"/><path id="path7" fill="#FFF" d="M49.5,21L33,49.5L219,141L36,237l16.5,25.5 L258,156l196.5,105l21-33l-189-91.5l189-87l-21-30l-196.7,96.7L49.5,21z"/></g></svg>