<svg xmlns="http://www.w3.org/2000/svg" xmlns:svg="http://www.w3.org/2000/svg" id="Layer_1" width="141.15" height="141.15" x="0" y="0" enable-background="new 0 0 510.24 283.46" version="1.1" viewBox="0 0 141.15 141.15" xml:space="preserve"><metadata id="metadata25"/><g id="g2990" transform="translate(19.596366,7.995999)"><rect id="rect3" width="14.227" height="22.756" x="0" y="0" fill="#909090" fill-opacity="1"/><rect id="rect5" width="14.25" height="24.641" x="29.908" y="0" fill="#909090" fill-opacity="1"/><rect id="rect7" width="14.249" height="17.308" x="59.547" y="9.256" fill="#909090" fill-opacity="1"/><path id="path9" fill="#909090" fill-opacity="1" d="m 80.615003,51.564 c 4.41,0 5.446,0.09 5.446,0.09 V 105.09 H 7.1130027 V 33.154 c 0,0 -0.503,-3.078 -2.498,-6.042 -1.995,-2.964 -4.50200001,-4.356 -4.50200001,-4.356 H 80.061003 c 0,0 0.554,24.731 0.554,28.808 z"/><path id="path11" fill="#909090" fill-opacity="1" d="m 97.211003,110.693 c 0.914,2.187 2.321,4.128 2.321,4.128 H 3.8650027 c 0,0 1.581,-1.187 2.625,-4.959 1.044,-3.772 0.623,-4.772 0.623,-4.772 H 96.061003 c 0,0 0.142,3.194 1.15,5.603 z"/><rect id="rect13" width="95.667" height="10.333" x="3.865" y="114.821" fill="#909090" fill-opacity="1"/><rect id="rect15" width="25.279" height="40.886" x="39.213" y="64.204" fill="#f4f4f4" fill-opacity="1"/><circle id="circle17" cx="186.987" cy="152.717" r="12.639" fill="#f4f4f4" fill-opacity="1" transform="translate(-135.135,-88.513)"/><rect id="rect19" width="12.446" height="10.603" x="83.615" y="94.487" fill="#909090" fill-opacity="1"/></g></svg>