<svg xmlns="http://www.w3.org/2000/svg" xmlns:svg="http://www.w3.org/2000/svg" id="symbol-traffic_signal" width="18.64" height="18.64" version="1.1" viewBox="0 0 550 550"><metadata id="metadata21"/><g id="g3" transform="translate(167,0)"><path id="path5" fill="#909090" fill-opacity="1" d="M212.1,105c0,58-47.5,105-106,105c-58.6,0-106-47-106-105 C0,47,47.5,0,106,0C164.6,0,212.1,47,212.1,105z"/><path id="path7" fill="#909090" fill-opacity="1" d="M212.1,452.3c0,58-47.5,105-106,105c-58.6,0-106-47-106-105 c0-58,47.5-105,106-105C164.6,347.3,212.1,394.3,212.1,452.3z"/><path id="path9" fill="#909090" fill-opacity="1" d="M211.3,458.9H0V106.7h211.3V458.9z"/><path id="path11" fill="#df0000" fill-opacity="1" d="M190,103c0,46.4-37.6,84-84,84 c-46.4,0-84-37.6-84-84s37.6-84,84-84C152.4,19,190,56.6,190,103z"/><path id="path13" fill="#2bb12b" fill-opacity="1" d="M190,455c0,46.4-37.6,84-84,84 c-46.4,0-84-37.6-84-84c0-46.4,37.6-84,84-84C152.4,371.1,190,408.7,190,455z"/><path id="path15" fill="#d4d400" fill-opacity="1" d="M190,279c0,46.4-37.6,84-84,84 c-46.4,0-84-37.6-84-84c0-46.4,37.6-84,84-84C152.4,195,190,232.6,190,279z"/></g></svg>