<svg xmlns="http://www.w3.org/2000/svg" xmlns:svg="http://www.w3.org/2000/svg" id="symbol-university" width="24" height="24" version="1.1" viewBox="0 0 164.807 164.807"><title id="title2985">University Map Icon</title><metadata id="metadata11"/><path id="path2990" fill="#505050" fill-opacity="1" stroke="none" stroke-linecap="butt" stroke-linejoin="miter" stroke-opacity="1" stroke-width="1" d="M 2,6 12,2 22,6 12,10 z" transform="scale(6.8669529,6.8669529)"/><path id="path3760" fill="#909090" fill-opacity="1" stroke="none" d="m 34.334765,54.935623 48.06867,20.600859 48.068675,-20.600859 0,34.334765 C 109.87125,82.403435 99.945963,78.594813 82.403435,96.137341 65.063177,78.797083 54.935623,82.403435 34.334765,89.270388 z"/><path id="path3762" fill="#909090" fill-opacity="1" stroke="none" d="M 2,6 12,2 22,6 12,10 4,7 3,9 4,13 4.7172361,13.769694 5.5100188,15.510019 4.3740138,16 4,15 3,16 2,16 3,14 2,9 3,6.3738919 z" transform="scale(6.8669529,6.8669529)"/></svg>