<svg xmlns="http://www.w3.org/2000/svg" xmlns:xlink="http://www.w3.org/1999/xlink" width="17" height="17" version="1.1" viewBox="0 0 17 17"><title>atm-s</title><desc>Created with Sketch.</desc><g id="POI" fill="none" fill-rule="evenodd" stroke="none" stroke-width="1"><g id="atm-s"><circle id="Oval-1-Copy-43" cx="8.5" cy="8.5" r="8.5" fill="#000" opacity="0"/><circle id="Oval-1-Copy-42" cx="8.5" cy="8.5" r="7.5" fill="#3D3D37"/><path id="rect10401-7-copy" fill="#FFF" d="M4.5,5 C4.223,5 4,5.223 4,5.5 L4,10.5 C4,10.777 4.223,11 4.5,11 L12.5,11 C12.777,11 13,10.777 13,10.5 L13,5.5 C13,5.223 12.777,5 12.5,5 L4.5,5 Z M4.5,6 L12.5,6 L12.5,7 L4.5,7 L4.5,6 Z M4.5,9 L6,9 L6,10 L4.5,10 L4.5,9 Z M9,9.5 L12,9.5 L12,10 L9,10 L9,9.5 Z" opacity=".4"/></g></g></svg>