<svg xmlns="http://www.w3.org/2000/svg" xmlns:xlink="http://www.w3.org/1999/xlink" width="23" height="23" version="1.1" viewBox="0 0 23 23"><title>atm-m</title><desc>Created with Sketch.</desc><g id="POI" fill="none" fill-rule="evenodd" stroke="none" stroke-width="1"><g id="atm-m-copy"><ellipse id="Oval-1-Copy-41" cx="11.5" cy="11.5" fill="#FFF" opacity="0" rx="11.5" ry="11.5"/><ellipse id="Oval-1-Copy-40" cx="11.5" cy="11.5" fill="#3D3D37" rx="10.5" ry="10.5"/><path id="rect10401-9-copy" fill="#FFF" d="M5.72222,8 C5.32211,8 5,8.3221 5,8.7223 L5,15.2778 C5,15.6779 5.32211,16 5.72222,16 L17.27778,16 C17.67789,16 18,15.6779 18,15.2778 L18,8.7223 C18,8.3221 17.67789,8 17.27778,8 L5.72222,8 Z M5.5,9.5 L17.5,9.5 L17.5,11 L5.5,11 L5.5,9.5 Z M6,13.5 L8,13.5 L8,15 L6,15 L6,13.5 Z M12,14.2777 L17,14.2777 L17,15 L12,15 L12,14.2777 Z" opacity=".4"/></g></g></svg>