<svg xmlns="http://www.w3.org/2000/svg" xmlns:xlink="http://www.w3.org/1999/xlink" width="27" height="28" version="1.1" viewBox="0 0 27 28"><title>banknote-l</title><desc>Created with Sketch.</desc><g id="POI" fill="none" fill-rule="evenodd" stroke="none" stroke-width="1"><g id="banknote-l-copy" transform="translate(0.000000, 0.500000)"><circle id="Oval-1-Copy-39" cx="13.5" cy="13.5" r="13.5" fill="#FFF" opacity="0"/><circle id="Oval-1-Copy-38" cx="13.5" cy="13.5" r="12.5" fill="#3D3D37"/><path id="Rectangle-12-Copy" fill="#FFF" d="M5,9 L22,9 L22,18 L5,18 L5,9 Z M12.5,17 C13.8807119,17 15,15.4329966 15,13.5 C15,11.5670034 13.8807119,10 12.5,10 C11.1192881,10 10,11.5670034 10,13.5 C10,15.4329966 11.1192881,17 12.5,17 Z" opacity=".4"/><path id="Shape-Copy-4" fill="#3D3D37" d="M19.5,19 C20.8807119,19 22,18.5522847 22,18 C22,17.4477153 20.8807119,17 19.5,17 C18.1192881,17 17,17.4477153 17,18 C17,18.5522847 18.1192881,19 19.5,19 L19.5,19 Z M19.5,20 L19.5,20 C17.6125116,20 16,19.3549954 16,18 C16,16.6450046 17.6125116,16 19.5,16 C21.3874884,16 23,16.6450046 23,18 C23,19.3549954 21.3874884,20 19.5,20 L19.5,20 Z"/><ellipse id="Oval-304-Copy-2" cx="19.5" cy="16" fill="#FFF" opacity=".4" rx="2.5" ry="1"/><ellipse id="Oval-304-Copy-3" cx="19.5" cy="18" fill="#FFF" opacity=".4" rx="2.5" ry="1"/><path id="Shape-Copy-3" fill="#3D3D37" d="M19.5,17 C20.8807119,17 22,16.5522847 22,16 C22,15.4477153 20.8807119,15 19.5,15 C18.1192881,15 17,15.4477153 17,16 C17,16.5522847 18.1192881,17 19.5,17 L19.5,17 Z M19.5,18 L19.5,18 C17.6125116,18 16,17.3549954 16,16 C16,14.6450046 17.6125116,14 19.5,14 C21.3874884,14 23,14.6450046 23,16 C23,17.3549954 21.3874884,18 19.5,18 L19.5,18 Z"/></g></g></svg>