<svg xmlns="http://www.w3.org/2000/svg" xmlns:xlink="http://www.w3.org/1999/xlink" width="23" height="23" version="1.1" viewBox="0 0 23 23"><title>banknote-m</title><desc>Created with Sketch.</desc><g id="POI" fill="none" fill-rule="evenodd" stroke="none" stroke-width="1"><g id="banknote-m-copy"><ellipse id="Oval-1-Copy-41" cx="11.5" cy="11.5" fill="#FFF" opacity="0" rx="11.5" ry="11.5"/><ellipse id="Oval-1-Copy-40" cx="11.5" cy="11.5" fill="#3D3D37" rx="10.5" ry="10.5"/></g><path id="Rectangle-12" fill="#FFF" d="M3,7 L20,7 L20,16 L3,16 L3,7 Z M10.5,15 C11.8807119,15 13,13.4329966 13,11.5 C13,9.56700338 11.8807119,8 10.5,8 C9.11928813,8 8,9.56700338 8,11.5 C8,13.4329966 9.11928813,15 10.5,15 Z" opacity=".4"/><path id="Shape-Copy-6" fill="#3D3D37" d="M16.5,17 C17.8807119,17 19,16.5522847 19,16 C19,15.4477153 17.8807119,15 16.5,15 C15.1192881,15 14,15.4477153 14,16 C14,16.5522847 15.1192881,17 16.5,17 L16.5,17 Z M16.5,18 L16.5,18 C14.6125116,18 13,17.3549954 13,16 C13,14.6450046 14.6125116,14 16.5,14 C18.3874884,14 20,14.6450046 20,16 C20,17.3549954 18.3874884,18 16.5,18 L16.5,18 Z"/><ellipse id="Oval-304" cx="16.5" cy="14" fill="#FFF" opacity=".4" rx="2.5" ry="1"/><ellipse id="Oval-304-Copy" cx="16.5" cy="16" fill="#FFF" opacity=".4" rx="2.5" ry="1"/><path id="Shape-Copy-7" fill="#3D3D37" d="M16.5,15 C17.8807119,15 19,14.5522847 19,14 C19,13.4477153 17.8807119,13 16.5,13 C15.1192881,13 14,13.4477153 14,14 C14,14.5522847 15.1192881,15 16.5,15 L16.5,15 Z M16.5,16 L16.5,16 C14.6125116,16 13,15.3549954 13,14 C13,12.6450046 14.6125116,12 16.5,12 C18.3874884,12 20,12.6450046 20,14 C20,15.3549954 18.3874884,16 16.5,16 L16.5,16 Z"/></g></svg>