<svg xmlns="http://www.w3.org/2000/svg" xmlns:xlink="http://www.w3.org/1999/xlink" width="23" height="23" version="1.1" viewBox="0 0 23 23"><title>bar-m</title><desc>Created with Sketch.</desc><g id="POI" fill="none" fill-rule="evenodd" stroke="none" stroke-width="1"><g id="bar-m-copy"><ellipse id="Oval-1-Copy-41" cx="11.5" cy="11.5" fill="#FFF" opacity="0" rx="11.5" ry="11.5"/><ellipse id="Oval-1-Copy-40" cx="11.5" cy="11.5" fill="#3D3D37" rx="10.5" ry="10.5"/><path id="path15601-4-0" fill="#FFF" d="M6,6 C5.59375,6 5,6.047 5,6.25 C5,6.4536 5.37228,6.8358 5.5,7 L11,13 L11,17 L8.1875,18.1875 C7.78125,18.3229 7.5,18.5 7.5,19 L15.5,19 C15.5,18.5 15.09375,18.3229 14.6875,18.1875 L12,17 L12,13 L17.5,7 C17.62772,6.8358 18,6.4536 18,6.25 C18,6.0474 17.40625,6 17,6 L6,6 Z" opacity=".4"/></g></g></svg>