<svg xmlns="http://www.w3.org/2000/svg" xmlns:xlink="http://www.w3.org/1999/xlink" width="17" height="17" version="1.1" viewBox="0 0 17 17"><title>basketball-s</title><desc>Created with Sketch.</desc><g id="POI" fill="none" fill-rule="evenodd" stroke="none" stroke-width="1"><g id="basketball-s"><circle id="Oval-1-Copy-43" cx="8.5" cy="8.5" r="8.5" fill="#000" opacity="0"/><circle id="Oval-1-Copy-42" cx="8.5" cy="8.5" r="7.5" fill="#3D3D37"/><path id="rect5769-7-3-copy" fill="#FFF" d="M6,4.3622 L4,6.3622 L4,10.8622 C4,11.1122 4.25,11.3622 4.5,11.3622 L6,11.3622 L7,12.3622 L8,13.3622 L9,13.3622 L10,12.3622 L11,11.3622 L12.5,11.3622 C12.75,11.3622 13,11.1122 13,10.8622 L13,6.3622 L11,4.3622 L6,4.3622 L6,4.3622 Z M6,6.3622 L11,6.3622 L11,9.3622 L6,9.3622 L6,6.3622 L6,6.3622 Z M6.6875,7.0497 L6.6875,8.6747 L10.3125,8.6747 L10.3125,7.0497 L6.6875,7.0497 L6.6875,7.0497 Z M7,10.3622 L8,10.3622 L8,11.3622 L9,11.3622 L9,10.3622 L10,10.3622 L10,11.3622 L9,12.3622 L8,12.3622 L7,11.3622 L7,10.3622 L7,10.3622 Z" opacity=".4"/></g></g></svg>