<svg xmlns="http://www.w3.org/2000/svg" xmlns:xlink="http://www.w3.org/1999/xlink" width="23" height="23" version="1.1" viewBox="0 0 23 23"><title>basketball-m</title><desc>Created with Sketch.</desc><g id="POI" fill="none" fill-rule="evenodd" stroke="none" stroke-width="1"><g id="basketball-m"><ellipse id="Oval-1-Copy-41" cx="11.5" cy="11.5" fill="#000" opacity="0" rx="11.5" ry="11.5"/><ellipse id="Oval-1-Copy-40" cx="11.5" cy="11.5" fill="#3D3D37" rx="10.5" ry="10.5"/><path id="rect5769-7-5-copy" fill="#FFF" d="M8,6 L5,8 L5,15 C5,15.5 5.5,16 6,16 L8.5,16 L10.5,19 L11.5,19 L12.5,19 L14.5,16 L17,16 C17.5,16 18,15.5 18,15 L18,8.5 L15,6 L8,6 L8,6 Z M8,9 L15,9 L15,14 L8,14 L8,9 L8,9 Z M9,10 L9,13 L14,13 L14,10 L9,10 L9,10 Z M9.5,16 L11,16 L11,17 L12,17 L12,16 L13.5,16 L12.8125,17 L12,17 L12,18 L11,18 L11,17 L10.1875,17 L9.5,16 L9.5,16 Z" opacity=".4"/></g></g></svg>