<svg xmlns="http://www.w3.org/2000/svg" xmlns:xlink="http://www.w3.org/1999/xlink" width="27" height="27" version="1.1" viewBox="0 0 27 27"><title>campsite-l</title><desc>Created with Sketch.</desc><g id="POI" fill="none" fill-rule="evenodd" stroke="none" stroke-width="1"><g id="campsite-l-copy"><circle id="Oval-1-Copy-39" cx="13.5" cy="13.5" r="13.5" fill="#FFF" opacity="0"/><circle id="Oval-1-Copy-38" cx="13.5" cy="13.5" r="12.5" fill="#3D3D37"/><path id="path11349-0" fill="#FFF" d="M13.5,6.00000003 C13,5.99990003 12.773906,6.23940003 12.625,6.50000003 L6.40625,18 L5.0625,18 C4.4759168,18 4,18.446005 4,19 C4,19.553995 4.4759168,20 5.0625,20 L7,20 L20,20 L21.9375,20 C22.524083,20 23,19.553995 23,19 C23,18.446005 22.524083,18 21.9375,18 L20.59375,18 L14.375,6.50000003 C14.226094,6.23940003 14,5.99990003 13.5,6.00000003 L13.5,6.00000003 Z M13.5,11 L17,18 L10,18 L13.5,11 Z" opacity=".4"/></g></g></svg>