<svg xmlns="http://www.w3.org/2000/svg" xmlns:xlink="http://www.w3.org/1999/xlink" width="17" height="17" version="1.1" viewBox="0 0 17 17"><title>campsite-s</title><desc>Created with Sketch.</desc><g id="POI" fill="none" fill-rule="evenodd" stroke="none" stroke-width="1"><g id="campsite-s-copy"><circle id="Oval-1-Copy-43" cx="8.5" cy="8.5" r="8.5" fill="#FFF" opacity="0"/><circle id="Oval-1-Copy-42" cx="8.5" cy="8.5" r="7.5" fill="#3D3D37"/><path id="path11349-0-3-copy" fill="#FFF" d="M8.53125,5 C8.28125,5 8.1682,5.1197 8.09375,5.25 L5.23437,11 L4.5,11 C4.20671,11 4,11.223 4,11.5 C4,11.777 4.20671,12 4.5,12 L5.53125,12 L11.53125,12 L12.46875,12 C12.76204,12 13,11.777 13,11.5 C13,11.223 12.76204,11 12.46875,11 L11.82812,11 L8.96875,5.25 C8.89425,5.1197 8.78125,5 8.53125,5 L8.53125,5 Z M8.53125,7.5 L10.03125,11 L7.03125,11 L8.53125,7.5 Z" opacity=".4"/></g></g></svg>