<svg xmlns="http://www.w3.org/2000/svg" xmlns:xlink="http://www.w3.org/1999/xlink" width="23" height="23" version="1.1" viewBox="0 0 23 23"><title>drugs</title><desc>Created with Sketch.</desc><g id="POI" fill="none" fill-rule="evenodd" stroke="none" stroke-width="1"><g id="bank-m-copy-2"><ellipse id="Oval-1-Copy-41" cx="11.5" cy="11.5" fill="#FFF" rx="11.5" ry="11.5"/><ellipse id="Oval-1-Copy-40" cx="11.5" cy="11.5" fill="#7A7A6E" rx="10.5" ry="10.5"/></g><g id="Shape-+-Rectangle-10" fill="#FFF" transform="translate(11.804626, 11.704650) rotate(-45.000000) translate(-11.804626, -11.704650) translate(4.304626, 8.704650)"><path id="Shape" d="M1.32352941,3 L1.32352941,3 C1.32352941,3.82646646 1.91738774,4.5 2.6471702,4.5 L12.3528298,4.5 C13.0885747,4.5 13.6764706,3.83232553 13.6764706,3 C13.6764706,2.17353354 13.0826123,1.5 12.3528298,1.5 L2.6471702,1.5 C1.91142527,1.5 1.32352941,2.16767447 1.32352941,3 L1.32352941,3 Z M0,3 C0,1.34314575 1.17702484,0 2.6471702,0 L12.3528298,0 C13.8148215,0 15,1.34651712 15,3 C15,4.65685425 13.8229752,6 12.3528298,6 L2.6471702,6 C1.18517847,6 0,4.65348288 0,3 L0,3 Z"/><rect id="Rectangle-10" width="7.941" height="6" x="0" y="0" rx="19"/></g></g></svg>