<svg xmlns="http://www.w3.org/2000/svg" xmlns:xlink="http://www.w3.org/1999/xlink" width="23" height="23" version="1.1" viewBox="0 0 23 23"><title>golf-m</title><desc>Created with Sketch.</desc><g id="POI" fill="none" fill-rule="evenodd" stroke="none" stroke-width="1"><g id="golf-m"><ellipse id="Oval-1-Copy-41" cx="11.5" cy="11.5" fill="#000" opacity="0" rx="11.5" ry="11.5"/><ellipse id="Oval-1-Copy-40" cx="11.5" cy="11.5" fill="#3D3D37" rx="10.5" ry="10.5"/><path id="rect8138-7-4-copy" fill="#FFF" d="M9,5.3823 L9,14.6581 C7.47058,14.7051 7,15.7353 7,16.5 C7,16.8823 7.5,17 7.5,17 L15.5,17 C15.5,17 16,16.8823 16,16.5 C16,14.5882 15.14706,13 14,13 C12.79763,13 12.48469,15.3025 11.29411,15.4706 C10.77204,15.5446 10.26758,15.2065 9.7647,14.9449 L9.7647,9.5882 L15.11765,7.2941 L10.1483,5.1644 C9.86043,5.041 9.57362,5 9.38235,5 C9.12122,5 9,5 9,5.3823 Z" opacity=".4"/></g></g></svg>