<svg xmlns="http://www.w3.org/2000/svg" xmlns:xlink="http://www.w3.org/1999/xlink" width="23" height="23" version="1.1" viewBox="0 0 23 23"><title>helipad-m</title><desc>Created with Sketch.</desc><g id="Transport" fill="none" fill-rule="evenodd" stroke="none" stroke-width="1"><g id="helipad-m"><circle id="Oval-1-Copy-41" cx="11.5" cy="11.5" r="11.5" fill="#FFF" opacity="0"/><circle id="Oval-1-Copy-40" cx="11.5" cy="11.5" r="8.5" fill="#21405C"/><path id="Oval-1-Copy-53" fill="#F8E81C" d="M11.5,22 C17.2989899,22 22,17.2989899 22,11.5 C22,5.70101013 17.2989899,1 11.5,1 C5.70101013,1 1,5.70101013 1,11.5 C1,17.2989899 5.70101013,22 11.5,22 Z M11.5,20 C16.1944204,20 20,16.1944204 20,11.5 C20,6.80557963 16.1944204,3 11.5,3 C6.80557963,3 3,6.80557963 3,11.5 C3,16.1944204 6.80557963,20 11.5,20 Z"/><path id="Rectangle-53-Copy-2" fill="#FFF" d="M10,11 L10,7 L8,7 L8,17 L10,17 L10,13 L13,13 L13,11 L10,11 Z M13,7 L15,7 L15,17 L13,17 L13,7 Z" opacity=".41"/></g></g></svg>