<svg xmlns="http://www.w3.org/2000/svg" xmlns:xlink="http://www.w3.org/1999/xlink" width="25" height="25" version="1.1" viewBox="0 0 25 25"><title>lightrail-berlin-l</title><desc>Created with Sketch.</desc><g id="Subways" fill="none" fill-rule="evenodd" stroke="none" stroke-width="1"><g id="lightrail-berlin-l"><ellipse id="Oval-23-Copy-2" cx="12.5" cy="12.5" fill="#FFF" opacity="0" rx="11.876" ry="11.876"/><g id="Group" transform="translate(1.503810, 1.503810)"><path id="Shape" fill="#004320" d="M10.9895861,21.965039 C4.94663461,21.965039 0.033087636,17.051492 0.033087636,11.0084744 C0.033087636,4.96552296 4.94663461,0.0519099439 10.9895861,0.0519099439 C17.0326036,0.0519099439 21.9462166,4.96552296 21.9462166,11.0084744 C21.9463487,17.051492 17.0326036,21.965039 10.9895861,21.965039 L10.9895861,21.965039 Z"/><path id="Shape" fill="#FFF" d="M8.2157723,6.1543003 C8.2157723,5.20327843 9.08754235,4.39094724 10.613206,4.39094724 C13.307768,4.39094724 15.6060708,5.83729301 17.1316684,7.48176833 L17.1316684,4.60888976 C15.3683154,3.24179581 13.1491983,2.42946463 10.6725788,2.42946463 C7.70063545,2.42946463 4.39187185,4.2523226 4.39187185,7.64027198 C4.39187185,14.0993616 14.1992849,11.7812458 14.1992849,15.5258283 C14.1992849,16.5164761 12.8916959,17.4477511 11.2670335,17.4477511 C8.61209746,17.4477511 5.97697435,15.8429017 4.53062858,13.7625413 L4.53062858,17.2099296 C6.05622617,18.5770235 8.84985292,19.6667361 11.2670335,19.6667361 C15.6060708,19.6667361 18.1818211,16.575849 18.1818211,13.9209129 C18.1818871,7.34307764 8.2157723,10.1563853 8.2157723,6.1543003 L8.2157723,6.1543003 Z" opacity=".41"/></g></g></g></svg>