<svg xmlns="http://www.w3.org/2000/svg" xmlns:xlink="http://www.w3.org/1999/xlink" width="27" height="27" version="1.1" viewBox="0 0 27 27"><title>lighthouse-l</title><desc>Created with Sketch.</desc><g id="POI" fill="none" fill-rule="evenodd" stroke="none" stroke-width="1"><g id="lighthouse-l-copy"><circle id="Oval-1-Copy-39" cx="13.5" cy="13.5" r="13.5" fill="#FFF" opacity="0"/><circle id="Oval-1-Copy-38" cx="13.5" cy="13.5" r="12.5" fill="#3D3D37"/><path id="rect4650-copy" fill="#FFF" d="M13,4 L10.5,5.5 C9.986461,5.8081 10,6.5 10,6.5 L10,10 L9,10 L9,12 L10,13 L10,14 L9,23 L17,23 L16,14 L16,13 L17,12 L17,10 L16,10 L16,6.5 C16,6.5 16.005,5.803 15.5,5.5 L13,4 Z M14,8 L14,10 L12,10 L12,8 C12,8 12,7 13,7 C14,7 14,8 14,8 L14,8 Z" opacity=".4"/></g></g></svg>