<svg xmlns="http://www.w3.org/2000/svg" xmlns:xlink="http://www.w3.org/1999/xlink" width="17" height="18" version="1.1" viewBox="0 0 17 18"><title>military-s</title><desc>Created with Sketch.</desc><g id="POI" fill="none" fill-rule="evenodd" stroke="none" stroke-width="1"><g id="military-s-copy" transform="translate(0.000000, 0.019000)"><circle id="Oval-1-Copy-43" cx="8.5" cy="8.5" r="8.5" fill="#FFF" opacity="0"/><circle id="Oval-1-Copy-42" cx="8.5" cy="8.5" r="7.5" fill="#3D3D37"/><path id="Shape" fill="#FFF" d="M11.033347,7.97893641 L12.4405343,7.97893641 C13.2389406,7.97893641 14.014549,8.67695893 14.014549,9.95445007 L13.8294799,9.95445007 L13.4354903,9.95445007 C13.4354903,9.95445007 13.0925936,9.95445007 12.5215828,9.95445006 C12.5378674,10.0310317 12.5464286,10.1103852 12.5464286,10.1916869 C12.5464286,10.8293039 12.0198608,11.4870979 11.3708209,11.4870979 L5.26790069,11.4870979 C4.61886084,11.4870979 4.02560464,10.8293039 4.02560464,10.1916869 C4.02560464,10.1103795 4.03415063,10.0310267 4.05040709,9.95444999 L4.05040709,9.95444999 C3.80830543,9.95444998 3.34072847,9.95444998 3.34072847,9.95444998 L2.94673891,9.95445007 C2.94673891,8.67695893 4.04546905,7.97893641 4.84453085,7.97893641 L5.01233991,7.97893641 L5.00678353,4.9270054 L9.53179704,4.9270054 L10.0608464,6.0023091 L14.0034124,6.00230908 L14.0034122,6.98099997 L10.5423623,6.98099999 L11.033347,7.97893641 Z" opacity=".4"/></g></g></svg>