<svg xmlns="http://www.w3.org/2000/svg" xmlns:xlink="http://www.w3.org/1999/xlink" width="23" height="23" version="1.1" viewBox="0 0 23 23"><title>monument-m</title><desc>Created with Sketch.</desc><g id="POI" fill="none" fill-rule="evenodd" stroke="none" stroke-width="1"><g id="monument-m-copy"><ellipse id="Oval-1-Copy-41" cx="11.5" cy="11.5" fill="#FFF" opacity="0" rx="11.5" ry="11.5"/><ellipse id="Oval-1-Copy-40" cx="11.5" cy="11.5" fill="#3D3D37" rx="10.5" ry="10.5"/><path id="path11719-5" fill="#FFF" d="M10,6.5 L10,14 L9,14 C8.56908,14 8,14.5136 8,14.9445 L8,16.5 L7,16.5 C6.5,16.5 6,17 6,17.5 L6,18 L17,18 L17,17.5 C17,17 16.5,16.5 16,16.5 L15,16.5 L15,15 C15,14.5 14.5,14 14,14 L13,14 L13,6.5 C13,5.7223 11.44444,4 11.44444,4 C11.44444,4 10,5.7223 10,6.5 Z" opacity=".4"/></g><g id="monument-m-copy-2"><ellipse id="Oval-1-Copy-41" cx="11.5" cy="11.5" fill="#FFF" opacity="0" rx="11.5" ry="11.5"/><ellipse id="Oval-1-Copy-40" cx="11.5" cy="11.5" fill="#3D3D37" rx="10.5" ry="10.5"/><path id="path11719-5" fill="#FFF" d="M10,6.5 L10,14 L9,14 C8.56908,14 8,14.5136 8,14.9445 L8,16.5 L7,16.5 C6.5,16.5 6,17 6,17.5 L6,18 L17,18 L17,17.5 C17,17 16.5,16.5 16,16.5 L15,16.5 L15,15 C15,14.5 14.5,14 14,14 L13,14 L13,6.5 C13,5.7223 11.44444,4 11.44444,4 C11.44444,4 10,5.7223 10,6.5 Z" opacity=".4"/></g></g></svg>