<svg xmlns="http://www.w3.org/2000/svg" xmlns:xlink="http://www.w3.org/1999/xlink" width="27" height="27" version="1.1" viewBox="0 0 27 27"><title>pharmacy-l</title><desc>Created with Sketch.</desc><g id="POI" fill="none" fill-rule="evenodd" stroke="none" stroke-width="1"><g id="pharmacy-l-copy"><ellipse id="Oval-1-Copy-41" cx="13.5" cy="13.5" fill="#FFF" opacity="0" rx="13.5" ry="13.5"/><circle id="Oval-1-Copy-40" cx="13.5" cy="13.5" r="12.5" fill="#3D3D37"/><path id="Shape-Copy-5" fill="#FFF" d="M13.6088328,15.2221062 L19.0047692,15.2221062 C19.8372528,15.2221062 20.5024476,14.4307366 20.5024476,13.4442123 C20.5024476,12.4646326 19.8305064,11.6663185 19.0047692,11.6663185 L13.5767344,11.6663185 L13.6088328,15.2221062 Z M5.02773961,13.4442123 C5.02773961,11.480405 6.35952442,9.88842468 8.02297041,9.88842468 L19.0047692,9.88842468 C20.6589895,9.88842468 22,11.484401 22,13.4442123 C22,15.4080196 20.6682152,17 19.0047692,17 L8.02297041,17 C6.36875012,17 5.02773961,15.4040237 5.02773961,13.4442123 L5.02773961,13.4442123 Z" opacity=".4" transform="translate(13.513870, 13.444212) rotate(-45.000000) translate(-13.513870, -13.444212)"/></g></g></svg>