<svg xmlns="http://www.w3.org/2000/svg" xmlns:xlink="http://www.w3.org/1999/xlink" width="23" height="23" version="1.1" viewBox="0 0 23 23"><title>phone-m</title><desc>Created with Sketch.</desc><g id="POI" fill="none" fill-rule="evenodd" stroke="none" stroke-width="1"><g id="phone-m-copy"><ellipse id="Oval-1-Copy-41" cx="11.5" cy="11.5" fill="#FFF" opacity="0" rx="11.5" ry="11.5"/><ellipse id="Oval-1-Copy-40" cx="11.5" cy="11.5" fill="#3D3D37" rx="10.5" ry="10.5"/><path id="path5849-copy" fill="#FFF" d="M13.4999986,5.27166656 L4.99999863,13.7716665 L4.99999863,16.2716665 L6.31249862,17.5841665 L9.3124986,14.5841665 L8.4999986,13.7716665 L13.4999986,8.77166653 L14.3124986,9.58416653 L17.3124985,6.58416655 L15.9999985,5.27166656 L13.4999986,5.27166656 L13.4999986,5.27166656 Z M17.6874985,6.95916655 L14.6874986,9.95916652 L14.9999985,10.2716665 L15.9999985,10.2716665 L17.9999985,8.27166654 L17.9999985,7.27166654 L17.6874985,6.95916655 L17.6874985,6.95916655 Z M9.68749859,14.9591665 L6.68749862,17.9591665 L6.99999862,18.2716665 L7.99999861,18.2716665 L9.99999859,16.2716665 L9.99999859,15.2716665 L9.68749859,14.9591665 L9.68749859,14.9591665 Z" opacity=".4"/></g></g></svg>