<svg xmlns="http://www.w3.org/2000/svg" xmlns:xlink="http://www.w3.org/1999/xlink" width="27" height="27" version="1.1" viewBox="0 0 27 27"><title>place-of-worship-l</title><desc>Created with Sketch.</desc><g id="POI" fill="none" fill-rule="evenodd" stroke="none" stroke-width="1"><g id="place-of-worship-l"><circle id="Oval-1-Copy-39" cx="13.5" cy="13.5" r="13.5" fill="#000" opacity="0"/><circle id="Oval-1-Copy-38" cx="13.5" cy="13.5" r="12.5" fill="#3D3D37"/><path id="path8846-copy" fill="#FFF" d="M13.5,5 C13.5,5 11,6 11,7 L11,9 C11,10 9,10 9,11 L9,20 L18,20 L18,11 C18,10 16,10 16,8.8125 L16,7 C16,6 13.5,5 13.5,5 L13.5,5 Z M5,13 L5,20 L7,20 L7,13 C7,12 6,12 6,12 C6,12 5,12 5,13 L5,13 Z M20,13 L20,20 L22,20 L22,13 C22,12 21,12 21,12 C21,12 20,12 20,13 L20,13 Z" opacity=".4"/></g></g></svg>