<svg xmlns="http://www.w3.org/2000/svg" xmlns:xlink="http://www.w3.org/1999/xlink" width="17" height="17" version="1.1" viewBox="0 0 17 17"><title>police-s</title><desc>Created with Sketch.</desc><g id="POI" fill="none" fill-rule="evenodd" stroke="none" stroke-width="1"><g id="police-s-copy"><circle id="Oval-1-Copy-43" cx="8.5" cy="8.5" r="8.5" fill="#FFF" opacity="0"/><circle id="Oval-1-Copy-42" cx="8.5" cy="8.5" r="7.5" fill="#3D3D37"/><path id="path5442-copy" fill="#FFF" d="M7,5 L10,5 L10,4 L7,4 L7,5 Z M7,5.75 C7,6.7165 7.53351,7.5 8.5,7.5 C9.46649,7.5 10,6.7165 10,5.75 L10,5.5 L7,5.5 L7,5.75 Z M6,8 C5.5,8 5,9.5 5,10 L5,13 L6.59375,13 L10,8 L6,8 Z M11,8 L7.59375,13 L12,13 L12,10 C12,9.5 11.5,8 11,8 L11,8 Z" opacity=".4"/></g></g></svg>