<svg xmlns="http://www.w3.org/2000/svg" xmlns:xlink="http://www.w3.org/1999/xlink" width="17" height="17" version="1.1" viewBox="0 0 17 17"><title>restaurant-s</title><desc>Created with Sketch.</desc><g id="POI" fill="none" fill-rule="evenodd" stroke="none" stroke-width="1"><g id="restaurant-s-copy"><circle id="Oval-1-Copy-43" cx="8.5" cy="8.5" r="8.5" fill="#FFF" opacity="0"/><circle id="Oval-1-Copy-42" cx="8.5" cy="8.5" r="7.5" fill="#3D3D37"/><path id="rect6396-8-copy" fill="#FFF" d="M5.5,4 L5,4 L5,7 C5,7.5 6,7.5 6,8 L6,14 L7,14 L7,8 C7,7.5 8,7.5 8,7 L8,4 L7.5,4 L7.5,6 L6.75,6 L6.75,4 L6.25,4 L6.25,6 L5.5,6 L5.5,4 Z M12,4 C11.5,4 10.56623,4.1176 10.25,4.75 C10,5.25 10,6 10,7 L10,9.5 L11,9.5 L11,14 L12,14 L12,4 Z" opacity=".4"/></g></g></svg>