<svg xmlns="http://www.w3.org/2000/svg" xmlns:xlink="http://www.w3.org/1999/xlink" width="17" height="17" version="1.1" viewBox="0 0 17 17"><title>shop-s</title><desc>Created with Sketch.</desc><g id="POI" fill="none" fill-rule="evenodd" stroke="none" stroke-width="1"><g id="shop-s"><circle id="Oval-1-Copy-43" cx="8.5" cy="8.5" r="8.5" fill="#000" opacity="0"/><circle id="Oval-1-Copy-42" cx="8.5" cy="8.5" r="7.5" fill="#3D3D37"/><path id="rect13131-6-6-copy" fill="#FFF" d="M7.17188,3.8622 C6.67188,3.8622 6.24623,4.3678 6.17188,4.8622 L6,6.3622 L5,6.3622 C4.75,6.3622 4.5,6.6122 4.5,6.8622 L4,11.8622 C4,12.1122 4.25,12.3622 4.5,12.3622 L12.5,12.3622 C12.75,12.3622 13,12.1122 13,11.8622 L12.5,6.8622 C12.5,6.6122 12.25,6.3622 12,6.3622 L11,6.3622 L10.82813,4.8622 C10.77123,4.3655 10.32813,3.8622 9.82813,3.8622 L7.17188,3.8622 Z M7.17188,4.3622 L9.82813,4.3622 C10.07813,4.3622 10.29603,4.5821 10.32813,4.8622 L10.5,6.3622 L6.5,6.3622 L6.67188,4.8622 C6.70038,4.6139 6.92188,4.3622 7.17188,4.3622 L7.17188,4.3622 Z" opacity=".4"/></g></g></svg>