<svg xmlns="http://www.w3.org/2000/svg" xmlns:xlink="http://www.w3.org/1999/xlink" width="27" height="27" version="1.1" viewBox="0 0 27 27"><title>shop-l</title><desc>Created with Sketch.</desc><g id="POI" fill="none" fill-rule="evenodd" stroke="none" stroke-width="1"><g id="shop-l"><circle id="Oval-1-Copy-39" cx="13.5" cy="13.5" r="13.5" fill="#000" opacity="0"/><circle id="Oval-1-Copy-38" cx="13.5" cy="13.5" r="12.5" fill="#3D3D37"/><path id="rect13131-6-copy" fill="#FFF" d="M12,4 C11,4 10.11384,5.0065 10,6 L9.65625,9 L8,9 C7.5,9 7,9.5 7,10 L6,20 C6,20.5 6.5,21 7,21 L20,21 C20.5,21 21,20.5 21,20 L20,10 C20,9.5 19.5,9 19,9 L17.34375,9 L17,6 C16.88616,5.0065 16,4 15,4 L12,4 Z M12,5 L15,5 C15.5,5 15.94308,5.5033 16,6 L16.34375,9 L10.65625,9 L11,6 C11.0569,5.5033 11.5,5 12,5 L12,5 Z" opacity=".4"/></g></g></svg>