<svg xmlns="http://www.w3.org/2000/svg" xmlns:xlink="http://www.w3.org/1999/xlink" width="23" height="23" version="1.1" viewBox="0 0 23 23"><title>subway-entrance-2-m</title><desc>Created with Sketch.</desc><g id="Subways" fill="none" fill-rule="evenodd" stroke="none" stroke-width="1"><g id="subway-entrance-2-m"><circle id="Oval-1-Copy-41" cx="11.5" cy="11.5" r="11.5" fill="#FFF" opacity="0"/><circle id="Oval-1-Copy-40" cx="11.5" cy="11.5" r="10.5" fill="#21405C"/><path id="rect3795" fill="#FFF" d="M7.8125,5.00749568 C7.3541124,5.09444551 6.9918117,5.54058812 7,6.00691909 L7,9.00518931 L9,9.00518931 L9,7.00634249 L16,7.00634249 L16,16.0011532 L9,16.0011532 L9,14.0023064 L7,14.0023064 L7,17.0005766 C7.0000989,17.5238747 7.4764282,17.9999001 8,18 L17,18 C17.523572,17.9999001 17.999901,17.5238747 18,17.0005766 L18,6.00691909 C17.999901,5.48362099 17.523572,5.00759562 17,5.00749568 L8,5.00749568 C7.937684,4.99750144 7.8748163,4.99750144 7.8125,5.00749568 L7.8125,5.00749568 Z M10,8.0057659 L10,10.0046127 L5,10.0046127 L5,13.002883 L10,13.002883 L10,15.0017298 L15,11.5037478 L10,8.0057659 L10,8.0057659 Z" opacity=".41" transform="translate(11.500000, 11.500000) rotate(-270.000000) translate(-11.500000, -11.500000)"/></g></g></svg>