<svg xmlns="http://www.w3.org/2000/svg" xmlns:xlink="http://www.w3.org/1999/xlink" width="17" height="17" version="1.1" viewBox="0 0 17 17"><title>swimming-s</title><desc>Created with Sketch.</desc><g id="POI" fill="none" fill-rule="evenodd" stroke="none" stroke-width="1"><g id="swimming-s"><circle id="Oval-1-Copy-43" cx="8.5" cy="8.5" r="8.5" fill="#000" opacity="0"/><circle id="Oval-1-Copy-42" cx="8.5" cy="8.5" r="7.5" fill="#3D3D37"/><path id="path8421-9-1-0-7-copy" fill="#FFF" d="M10.5,4.3622 L10,4.666 L7.78125,5.956 C7.51504,6.082 7.41818,6.4694 7.59375,6.706 L8.20312,7.5341 L6,9.3622 L7,9.5966 L8.5,9.1281 L10,9.5966 L11,9.3622 L8.78125,6.581 L11.01562,5.1903 L11.00002,4.3622 L10.5,4.3622 Z M11.5,6.4092 C10.94772,6.4092 10.5,6.8569 10.5,7.4092 C10.5,7.9614 10.94772,8.4092 11.5,8.4092 C12.05228,8.4092 12.5,7.9614 12.5,7.4092 C12.5,6.8569 12.05228,6.4092 11.5,6.4092 L11.5,6.4092 Z M5.5,10.3623 L4,10.8308 L4,11.862 L4.15625,11.815 L5.5,11.3619 L7,11.8617 L8.5,11.3619 L10,11.8617 L11.5,11.3619 L13,11.8619 L13,10.8307 L11.5,10.3622 L10,10.8307 L8.5,10.3622 L7,10.8307 L5.5,10.3622 L5.5,10.3623 Z" opacity=".4"/></g></g></svg>