<svg xmlns="http://www.w3.org/2000/svg" xmlns:xlink="http://www.w3.org/1999/xlink" width="17" height="17" version="1.1" viewBox="0 0 17 17"><title>toilets-s</title><desc>Created with Sketch.</desc><g id="POI" fill="none" fill-rule="evenodd" stroke="none" stroke-width="1"><g id="toilets-s"><circle id="Oval-1-Copy-43" cx="8.5" cy="8.5" r="8.5" fill="#000" opacity="0"/><circle id="Oval-1-Copy-42" cx="8.5" cy="8.5" r="7.5" fill="#3D3D37"/><path id="path7660-7-copy" fill="#FFF" d="M6,4 C5.30964,4 4.75,4.55964 4.75,5.25 C4.75,5.94036 5.30964,6.5 6,6.5 C6.69036,6.5 7.25,5.94036 7.25,5.25 C7.25,4.55964 6.69036,4 6,4 L6,4 Z M11,4 C10.30964,4 9.75,4.55964 9.75,5.25 C9.75,5.94036 10.30964,6.5 11,6.5 C11.69036,6.5 12.25,5.94036 12.25,5.25 C12.25,4.55964 11.69036,4 11,4 L11,4 Z M5,7 L5,8.5 L3.5,11 L5,11 L5,13 L7,13 L7,11 L8.5,11 L7,8.5 L7,7 L5,7 L5,7 Z M9,7 L10,10.5 L10,13 L12,13 L12,10.5 L13,7 L9,7 L9,7 Z" opacity=".4"/></g></g></svg>