<svg xmlns="http://www.w3.org/2000/svg" xmlns:xlink="http://www.w3.org/1999/xlink" width="23" height="23" version="1.1" viewBox="0 0 23 23"><title>volcano-m</title><desc>Created with Sketch.</desc><g id="POI" fill="none" fill-rule="evenodd" stroke="none" stroke-width="1"><g id="volcano-m-copy"><ellipse id="Oval-1-Copy-39" cx="11.5" cy="11.5" fill="#FFF" opacity="0" rx="11.5" ry="11.5"/><circle id="Oval-1-Copy-38" cx="11.5" cy="11.5" r="10.5" fill="#3D3D37"/><path id="path11349" fill="#FFF" d="M11.4999999,9.50419125 C10.991401,9.50419125 10.0103272,9.02756313 10.0103272,9.02756313 L6.03581871,15.306713 C5.98446998,15.3970785 5.96296296,15.4984542 5.96296296,15.599537 C5.96296296,16.0387731 6.25438596,16.1853023 6.54580897,16.1851852 L16.454191,16.1851852 C16.745614,16.1853023 17.037037,16.0387731 17.037037,15.599537 C17.037037,15.4984542 17.0155592,15.3970785 16.9641813,15.306713 L13.0638755,9.02756313 C13.0638755,9.02756313 12.0092505,9.50419125 11.4999999,9.50419125 Z" opacity=".4"/><rect id="Rectangle-35" width="2" height="2" x="11" y="6" fill="#FFF" opacity=".4"/><rect id="Rectangle-35-Copy" width="2" height="2" x="13" y="4" fill="#FFF" opacity=".4"/></g></g></svg>