<svg xmlns="http://www.w3.org/2000/svg" xmlns:xlink="http://www.w3.org/1999/xlink" width="17" height="17" version="1.1" viewBox="0 0 17 17"><title>zoo-s</title><desc>Created with Sketch.</desc><g id="POI" fill="none" fill-rule="evenodd" stroke="none" stroke-width="1"><g id="zoo-s-copy"><circle id="Oval-1-Copy-43" cx="8.5" cy="8.5" r="8.5" fill="#FFF" opacity="0"/><circle id="Oval-1-Copy-42" cx="8.5" cy="8.5" r="7.5" fill="#3D3D37"/><path id="path10518" fill="#FFF" d="M10.5,4 C9.5,5.5 9.60789,7.0026 8.5,8 C7.44168,8.9528 5,8.6257 5,10 L5,10.5 C5,11 5.5,11.4758 5.5,12 L5.5,12.5 C5.5,13.25 5.25,13.25 5,14 L5.5,14 L6.5,12.5 L6.5,14 L7,14 L7,11 L8,11 L8,14 L8.5,14 L8.5,11.5 L9.5,11.5 L10,14 L10.5,14 L10,10 L10,8.5 L11,5 L12,5 L12,4 L10.5,4 Z" opacity=".4"/></g></g></svg>