<svg xmlns="http://www.w3.org/2000/svg" xmlns:xlink="http://www.w3.org/1999/xlink" width="28" height="28" version="1.1" viewBox="0 0 28 28"><title>airport-l</title><desc>Created with Sketch.</desc><g id="Transport" fill="none" fill-rule="evenodd" stroke="none" stroke-width="1"><g id="airport-l" transform="translate(0.840271, 0.634843)"><ellipse id="Oval-1-Copy-45" cx="13.382" cy="13.38" fill="#FFF" rx="13.382" ry="13.38"/><ellipse id="Oval-1-Copy-44" cx="13.382" cy="13.38" fill="#3C3E38" rx="12.391" ry="12.389"/><g id="g6678" fill="#FFF" transform="translate(4.956438, 3.964567)"><g id="g14771"><path id="path7712" d="M16.8518877,10.7659797 L16.8518877,11.2615506 L9.91287512,10.2704089 L9.91287512,14.2347776 L11.8954501,16.2172593 C11.8954501,16.7128301 11.3998064,17.208401 10.9041626,17.208401 L5.94772507,17.208401 C5.45208132,17.208401 4.95643756,16.7128301 4.95643756,16.2172593 L6.93901258,14.2347776 L6.93901258,10.2702106 L0,11.2613524 L0,10.7659797 C0,10.2704089 0.303009927,10.1337304 0.495643756,10.0226234 L6.93901258,6.3056437 L6.93901258,4.32336024 C6.93901258,3.3322185 7.43465634,0.358793307 8.42594385,0.358793307 C9.41723136,0.358793307 9.91287512,3.3322185 9.91287512,4.32336024 L9.91287512,6.3056437 L16.3562439,10.0226234 C16.6322283,10.1818008 16.8518877,10.2615877 16.8518877,10.7659797 L16.8518877,10.7659797 Z"/></g></g></g></g></svg>