<svg xmlns="http://www.w3.org/2000/svg" xmlns:xlink="http://www.w3.org/1999/xlink" width="27" height="27" version="1.1" viewBox="0 0 27 27"><title>bar-l</title><desc>Created with Sketch.</desc><g id="POI" fill="none" fill-rule="evenodd" stroke="none" stroke-width="1"><g id="bar-l"><circle id="Oval-1-Copy-39" cx="13.5" cy="13.5" r="13.5" fill="#FFF"/><circle id="Oval-1-Copy-38" cx="13.5" cy="13.5" r="12.5" fill="#7F7D54"/><path id="path15601-4" fill="#FFF" d="M7,7 C6.5,7 6,7.0006 6,7.25 C6,7.5006 6.34281,7.7979 6.5,8 L13,14.8125 L13,21 L10,22 C9.5,22.1667 9,22.5 9,23 L18,23 C18,22.5 17.5,22.1667 17,22 L14,21 L14,14.8125 L20.5,8 C20.65719,7.7979 21,7.5006 21,7.25 C21,7.0006 20.5,7 20,7 L7,7 Z"/></g></g></svg>