<svg xmlns="http://www.w3.org/2000/svg" xmlns:xlink="http://www.w3.org/1999/xlink" width="23" height="23" version="1.1" viewBox="0 0 23 23"><title>baseball-m</title><desc>Created with Sketch.</desc><g id="POI" fill="none" fill-rule="evenodd" stroke="none" stroke-width="1"><g id="baseball-m"><ellipse id="Oval-1-Copy-41" cx="11.5" cy="11.5" fill="#FFF" rx="11.5" ry="11.5"/><ellipse id="Oval-1-Copy-40" cx="11.5" cy="11.5" fill="#7F7D54" rx="10.5" ry="10.5"/><path id="path20837-copy" fill="#FFF" d="M8,5 C8,5 7,5 6.5,5.5 C6,6 6,7 6,7 C8.5,10.5 13.07972,13.1418 14,14 L16.59375,16.4063 L16,17 L16,18 L17,18 L18,17 L19,16 L19,15 L18,15 L17.40625,15.5938 L15,13 C12.63789,10.4672 11.5,7.5 8,5 L8,5 Z M9.75,14 C9.05964,14 8.5,14.5596 8.5,15.25 C8.5,15.9404 9.05964,16.5 9.75,16.5 C10.44036,16.5 11,15.9404 11,15.25 C11,14.5596 10.44036,14 9.75,14 L9.75,14 Z"/></g></g></svg>