<svg xmlns="http://www.w3.org/2000/svg" xmlns:xlink="http://www.w3.org/1999/xlink" width="15" height="13" version="1.1" viewBox="0 0 15 13"><title>bench</title><desc>Created with Sketch.</desc><g id="Other" fill="none" fill-rule="evenodd" stroke="none" stroke-width="1"><g id="bench" fill="#7A7A6A" transform="translate(0.000000, 1.000000)"><path id="Rectangle-30" d="M5,2 L5,3 L5,3 L10,3 L10,2 L5,2 L5,2 Z M5,1 L5,0 L4,0 L4,1 L1,1 L1,2 L4,2 L4,3 L2,3 L2,4 L4,4 L4,6 L5,6 L5,4 L10,4 L10,6 L11,6 L11,4 L13,4 L13,3.5673974 L13,3 L11,3 L11,2 L14,2 L14,1 L11,1 L11,0 L10,0 L10,1 L5,1 L5,1 Z M2,8 L4,8 L4,11 L2,11 L2,8 Z M11,8 L13,8 L13,11 L11,11 L11,8 Z M0,6 L15,6 L15,8 L0,8 L0,6 Z"/></g></g></svg>