<svg xmlns="http://www.w3.org/2000/svg" xmlns:xlink="http://www.w3.org/1999/xlink" width="17" height="17" version="1.1" viewBox="0 0 17 17"><title>cable-car-s</title><desc>Created with Sketch.</desc><g id="Transport" fill="none" fill-rule="evenodd" stroke="none" stroke-width="1"><g id="cable-car-s"><circle id="Oval-1-Copy-43" cx="8.5" cy="8.5" r="8.5" fill="#FFF"/><circle id="Oval-1-Copy-42" cx="8.5" cy="8.5" r="7.5" fill="#3C3E38"/><path id="path24879" fill="#FFF" d="M5.69730425,6.61157772 L5.80269575,6.53127943 C5.35937913,6.86904447 5,7.59491021 5,8.15276589 L5,12.4285714 C5,12.7142857 5.25,13 5.5,13 L6.75,13 L9,13 L10.25,13 L11.5,13 C11.75,13 12,12.7142857 12,12.4285714 L12,8.15276589 C12,7.59500869 11.6368918,6.86620331 11.1973042,6.53127943 L11.3026958,6.61157772 C10.8593791,6.27381267 10.0566468,6 9.4906311,6 L7.5093689,6 C6.95190985,6 6.13689184,6.27665383 5.69730425,6.61157772 Z M7,7.14285714 L10,7.14285714 L11,7.71428571 L11,9.42857143 L6,9.42857143 L6,7.71428571 L7,7.14285714 L7,7.14285714 Z"/><rect id="Rectangle-58" width="1" height="3" x="8" y="7" fill="#FFF"/><path id="Rectangle-56-Copy" fill="#FFF" d="M9.93798452,4.29457364 L12,4 L12,3 L5,4.00000001 L5,5.00000001 L8.52713179,4.49612404 L7.7,6 L9,6 L9.93798452,4.29457364 Z"/></g></g></svg>