<svg xmlns="http://www.w3.org/2000/svg" xmlns:xlink="http://www.w3.org/1999/xlink" width="23" height="23" version="1.1" viewBox="0 0 23 23"><title>campsite-m</title><desc>Created with Sketch.</desc><g id="POI" fill="none" fill-rule="evenodd" stroke="none" stroke-width="1"><g id="campsite-m"><ellipse id="Oval-1-Copy-41" cx="11.5" cy="11.5" fill="#FFF" rx="11.5" ry="11.5"/><ellipse id="Oval-1-Copy-40" cx="11.5" cy="11.5" fill="#7F7D54" rx="10.5" ry="10.5"/><path id="path11349-0-7-copy" fill="#FFF" d="M11.5,6.00040004 C11.13889,6.00030004 10.9756,6.17330004 10.86806,6.36150004 L7,14.5 L5.5,14.5 C5,14.5 5,15.2778 5,15.2778 C5,15.2778 5,16 5.5,16 L17.5,16 C18,16 18,15.2778 18,15.2778 C18,15.2778 18,14.5001 17.5,14.5 L16,14.4996 L12.13194,6.36110004 C12.0244,6.17290004 11.86111,5.99990004 11.5,6.00000004 L11.5,6.00040004 Z M11.5,9.00000004 L14,14.5 L9,14.5 L11.5,9.00000004 Z"/></g></g></svg>