<svg xmlns="http://www.w3.org/2000/svg" xmlns:xlink="http://www.w3.org/1999/xlink" width="27" height="27" version="1.1" viewBox="0 0 27 27"><title>cave-l</title><desc>Created with Sketch.</desc><g id="POI" fill="none" fill-rule="evenodd" stroke="none" stroke-width="1"><g id="cave-l"><g id="peak-l-copy"><circle id="Oval-1-Copy-39" cx="13.5" cy="13.5" r="13.5" fill="#FFF"/><circle id="Oval-1-Copy-38" cx="13.5" cy="13.5" r="12.5" fill="#7F7D54"/></g><path id="Shape" fill="#FFF" d="M13.5012442,19 C9.74937728,19 6,14.0836163 6,8.01400679 C6,7.32151952 6.05228215,6.65662139 6.12448132,6 L10.8946054,6 C10.877178,6.44418506 10.8497921,6.88285229 10.8497921,7.34083192 C10.8497921,13.0352292 11.6464726,15.6479202 13.5012442,15.6479202 C15.3560158,15.6479202 16.1526963,13.0352292 16.1526963,7.34083192 C16.1526963,6.88285229 16.1278,6.44418506 16.107883,6 L20.8755174,6 C20.9502062,6.65662139 20.9999988,7.32151952 20.9999988,8.01400679 C21.0024884,14.0836163 17.2556007,19 13.5012442,19 L13.5012442,19 Z" transform="translate(13.500000, 12.500000) rotate(-180.000000) translate(-13.500000, -12.500000)"/></g></g></svg>