<svg xmlns="http://www.w3.org/2000/svg" xmlns:xlink="http://www.w3.org/1999/xlink" width="23" height="23" version="1.1" viewBox="0 0 23 23"><title>garden-m</title><desc>Created with Sketch.</desc><g id="POI" fill="none" fill-rule="evenodd" stroke="none" stroke-width="1"><g id="Natural" transform="translate(-37.000000, -39.000000)"><g id="garden-m" transform="translate(37.000000, 39.000000)"><ellipse id="Oval-1-Copy-41" cx="11.5" cy="11.5" fill="#FFF" rx="11.5" ry="11.5"/><ellipse id="Oval-1-Copy-40" cx="11.5" cy="11.5" fill="#3A7921" rx="10.5" ry="10.5"/><path id="path6080-4-1" fill="#FFF" d="M8,5 L8,7.5 C8,9.15038 9.375,10.05078 11,10 L11,16.5 C10.1875,14.875 8.5,13 6,14 C6,14 7.5,18 11.5,18 C15.5,18 17,14 17,14 C14.5,13 12.8125,14.875 12,16.5 L12,10 C13.625,10.0508 15,9.15038 15,7.5 L15,5.00001 L13,7 L11.5,5 L10,7 L8,5 Z"/></g></g></g></svg>