<svg xmlns="http://www.w3.org/2000/svg" xmlns:xlink="http://www.w3.org/1999/xlink" width="17" height="17" version="1.1" viewBox="0 0 17 17"><title>garden-s</title><desc>Created with Sketch.</desc><g id="POI" fill="none" fill-rule="evenodd" stroke="none" stroke-width="1"><g id="Natural" transform="translate(-71.000000, -42.000000)"><g id="garden-s" transform="translate(71.000000, 42.000000)"><circle id="Oval-1-Copy-43" cx="8.5" cy="8.5" r="8.5" fill="#FFF"/><circle id="Oval-1-Copy-42" cx="8.5" cy="8.5" r="7.5" fill="#3A7921"/><path id="path6080-4-3" fill="#FFF" d="M6,4 L6,6 C6,6.86708 6.9353,7.75357 8,7.96875 L8,12 C7.5,11 6.5,10 5,11 C5,11 6,13 8.5,13 C11,13 12,11 12,11 C10.5,10 9.5,11 9,12 L9,7.96875 C10.0647,7.75357 11,6.86708 11,6 L11,4 L9.4375,5.25 L8.5,4 L7.5625,5.25 L6,4 L6,4 Z"/></g></g></g></svg>