<svg xmlns="http://www.w3.org/2000/svg" xmlns:xlink="http://www.w3.org/1999/xlink" width="17" height="17" version="1.1" viewBox="0 0 17 17"><title>golf-s</title><desc>Created with Sketch.</desc><g id="POI" fill="none" fill-rule="evenodd" stroke="none" stroke-width="1"><g id="golf-s"><circle id="Oval-1-Copy-43" cx="8.5" cy="8.5" r="8.5" fill="#FFF"/><circle id="Oval-1-Copy-42" cx="8.5" cy="8.5" r="7.5" fill="#7F7D54"/><path id="rect8138-7-8-copy" fill="#FFF" d="M7,4 C6.80487,4 6.5,4.2143 6.5,4.5 L6.5,11.25 C5.35714,11.285 5,12.1429 5,12.7143 C5,13 5.28571,13 5.28571,13 L11.71429,13 C11.71429,13 12,13 12,12.7143 C12,11.2857 11.35714,10.1429 10.5,10.1429 C9.60152,10.1429 9.31823,11.7316 8.42857,11.8571 C8.03845,11.9121 7.37578,11.6598 7,11.4643 L7,7.5 L11,6 L7,4 Z"/></g></g></svg>