<svg xmlns="http://www.w3.org/2000/svg" xmlns:xlink="http://www.w3.org/1999/xlink" width="23" height="23" version="1.1" viewBox="0 0 23 23"><title>hospital-m</title><desc>Created with Sketch.</desc><g id="POI" fill="none" fill-rule="evenodd" stroke="none" stroke-width="1"><g id="hospital-m"><ellipse id="Oval-1-Copy-41" cx="11.5" cy="11.5" fill="#FFF" rx="11.5" ry="11.5"/><ellipse id="Oval-1-Copy-40" cx="11.5" cy="11.5" fill="#C15746" rx="10.5" ry="10.5"/><path id="rect8206-4-3-copy" fill="#FFF" d="M10,5 C9.446,5 9,5.446 9,6 L9,9 L6,9 C5.446,9 5,9.446 5,10 L5,13 C5,13.554 5.474429,14.1752 6,14 L9,14 L9,17 C9,17.554 9.446,18 10,18 L13,18 C13.554,18 14,17.554 14,17 L14,14 L17,14 C17.554,14 18,13.554 18,13 L18,10 C18,9.446 17.554,9 17,9 L14,9 L14,6 C14,5.446 13.554,5 13,5 L10,5 Z"/></g></g></svg>