<svg xmlns="http://www.w3.org/2000/svg" xmlns:xlink="http://www.w3.org/1999/xlink" width="27" height="19" version="1.1" viewBox="0 0 27 19"><title>metro-barcelona-m</title><desc>Created with Sketch.</desc><g id="Subways" fill="none" fill-rule="evenodd" stroke="none" stroke-width="1"><g id="metro-barcelona-m" transform="translate(0.000000, -4.000000)"><path id="Rectangle-339-Copy-2" fill="#FFF" d="M4.29289322,4.29289322 L20.1764088,6.82359117 L22.7071068,22.7071068 L6.82359117,20.1764088 L4.29289322,4.29289322 Z" transform="translate(13.500000, 13.500000) rotate(-45.000000) translate(-13.500000, -13.500000)"/><path id="Rectangle-339" fill="#ED1B2D" d="M5,5 L19.469302,7.53069795 L22,22 L7.53069795,19.469302 L5,5 Z" transform="translate(13.500000, 13.500000) rotate(-45.000000) translate(-13.500000, -13.500000)"/><path id="path4854" fill="#FFF" d="M17,17 L17,15 L12.6347826,13.498913 L17,12 L17,10 L10,10 L10,11.5554348 L14.0147367,11.525 L10,13 L10,14 L14.0147367,15.4445653 L12.3717391,15.4445652 L10,15.4445652 L10,17 L17,17 Z" transform="translate(13.500000, 13.500000) rotate(-90.000000) translate(-13.500000, -13.500000)"/></g></g></svg>