<svg xmlns="http://www.w3.org/2000/svg" xmlns:xlink="http://www.w3.org/1999/xlink" width="27" height="27" version="1.1" viewBox="0 0 27 27"><title>monument-l</title><desc>Created with Sketch.</desc><g id="POI" fill="none" fill-rule="evenodd" stroke="none" stroke-width="1"><g id="monument-l"><circle id="Oval-1-Copy-39" cx="13.5" cy="13.5" r="13.5" fill="#FFF"/><circle id="Oval-1-Copy-38" cx="13.5" cy="13.5" r="12.5" fill="#7F7D54"/><path id="path11719" fill="#FFF" d="M11,7 L11,16 L9,16 C8.44599,16 8,16.446 8,17 L8,19 L7,19 C6.44601,19 6,19.446 6,20 L6,21 L21,21 L21,20 C21,19.446 20.55399,19 20,19 L19,19 L19,17 C19,16.446 18.55401,16 18,16 L16,16 L16,7 C16,6 13.5,4 13.5,4 C13.5,4 10.90946,6.0041 11,7 Z"/></g><g id="monument-l-copy-2"><circle id="Oval-1-Copy-39" cx="13.5" cy="13.5" r="13.5" fill="#FFF"/><circle id="Oval-1-Copy-38" cx="13.5" cy="13.5" r="12.5" fill="#7F7D54"/><path id="path11719" fill="#FFF" d="M11,7 L11,16 L9,16 C8.44599,16 8,16.446 8,17 L8,19 L7,19 C6.44601,19 6,19.446 6,20 L6,21 L21,21 L21,20 C21,19.446 20.55399,19 20,19 L19,19 L19,17 C19,16.446 18.55401,16 18,16 L16,16 L16,7 C16,6 13.5,4 13.5,4 C13.5,4 10.90946,6.0041 11,7 Z"/></g></g></svg>