<svg xmlns="http://www.w3.org/2000/svg" xmlns:xlink="http://www.w3.org/1999/xlink" width="17" height="17" version="1.1" viewBox="0 0 17 17"><title>monument-s</title><desc>Created with Sketch.</desc><g id="POI" fill="none" fill-rule="evenodd" stroke="none" stroke-width="1"><g id="monument-s"><circle id="Oval-1-Copy-43" cx="8.5" cy="8.5" r="8.5" fill="#FFF"/><circle id="Oval-1-Copy-42" cx="8.5" cy="8.5" r="7.5" fill="#7F7D54"/><path id="path11719-7" fill="#FFF" d="M8.5,4 C8.5,4 7,5.5 7,6 L7,10 L6.5,10 C6.22299,10 6.03629,10.2254 6,10.5 L6,12 L5.5,12 C5.223,12 5,12.223 5,12.5 L5,13 L12,13 L12,12.5 C12,12.223 11.77699,12 11.5,12 L11,12 L11,10.5 C11,10.223 10.777,10 10.5,10 L10,10 L10,6 C10,5.5 8.5,4 8.5,4 L8.5,4 Z"/></g><g id="monument-s-copy-2"><circle id="Oval-1-Copy-43" cx="8.5" cy="8.5" r="8.5" fill="#FFF"/><circle id="Oval-1-Copy-42" cx="8.5" cy="8.5" r="7.5" fill="#7F7D54"/><path id="path11719-7" fill="#FFF" d="M8.5,4 C8.5,4 7,5.5 7,6 L7,10 L6.5,10 C6.22299,10 6.03629,10.2254 6,10.5 L6,12 L5.5,12 C5.223,12 5,12.223 5,12.5 L5,13 L12,13 L12,12.5 C12,12.223 11.77699,12 11.5,12 L11,12 L11,10.5 C11,10.223 10.777,10 10.5,10 L10,10 L10,6 C10,5.5 8.5,4 8.5,4 L8.5,4 Z"/></g></g></svg>