<svg xmlns="http://www.w3.org/2000/svg" xmlns:xlink="http://www.w3.org/1999/xlink" width="17" height="17" version="1.1" viewBox="0 0 17 17"><title>park-s</title><desc>Created with Sketch.</desc><g id="POI" fill="none" fill-rule="evenodd" stroke="none" stroke-width="1"><g id="Natural" transform="translate(-71.000000, -79.000000)"><g id="park-s" transform="translate(71.000000, 79.000000)"><circle id="Oval-1-Copy-43" cx="8.5" cy="8.5" r="8.5" fill="#FFF"/><circle id="Oval-1-Copy-42" cx="8.5" cy="8.5" r="7.5" fill="#3A7921"/><path id="path4390-3-8" fill="#FFF" d="M7.84375,4.00711111 C7.28125,4.05411111 7,4.75711111 7,5.50711111 C6,5.00711111 5.5,5.25711111 5.5,6.25711111 C5.5,7.25711111 6.5,7.50711111 6.5,7.50711111 C6.5,7.50711111 5,7.26101111 5,8.75711111 C5,9.44741111 5.80965,10.0071111 6.5,10.0071111 L6.5,11.0071111 L8,11.0071111 L8,14.0071111 L9,14.0071111 L9,11.0071111 L10.5,11.0071111 L10.5,10.0071111 C11.5,10.0071111 12,9.40951111 12,8.75711111 C12,7.26111111 10.5,7.50711111 10.5,7.50711111 C10.5,7.50711111 11.5,7.25711111 11.5,6.25711111 C11.5,5.25711111 10.5,5.00711111 10,5.50711111 C10,4.50711111 9.5,4.00711111 8.5,4.00711111 C8.25,4.00711111 8.03125,3.99111111 7.84375,4.00711111 L7.84375,4.00711111 Z M7.5,10.0071111 L9.5,10.0071111 L9,11.0071111 L8,11.0071111 L7.5,10.0071111 Z"/></g></g></g></svg>