<svg xmlns="http://www.w3.org/2000/svg" xmlns:xlink="http://www.w3.org/1999/xlink" width="17" height="17" version="1.1" viewBox="0 0 17 17"><title>pharmacy-s</title><desc>Created with Sketch.</desc><g id="POI" fill="none" fill-rule="evenodd" stroke="none" stroke-width="1"><g id="pharmacy-s"><g transform="translate(-357.000000, -753.000000) translate(357.000000, 753.000000)"><circle id="Oval-1-Copy-43" cx="8.5" cy="8.5" r="8.5" fill="#FFF"/><circle id="Oval-1-Copy-42" cx="8.5" cy="8.5" r="7.5" fill="#777871"/><path id="path14819-copy" fill="#FFF" d="M8.5,4 C7.11929,4 6,4.4477 6,5 L6,6.5 C6,7.0523 7.11929,7.5 8.5,7.5 C9.88071,7.5 11,7.0523 11,6.5 L11,5 C11,4.4477 9.88071,4 8.5,4 L8.5,4 Z M6,7.5 L6,12.5 C6,13.0523 7.11929,13.5 8.5,13.5 C9.88071,13.5 11,13.0523 11,12.5 L11,7.5 C11,8.0523 9.88071,8.5 8.5,8.5 C7.11929,8.5 6,8.0523 6,7.5 L6,7.5 Z M7,9.5 C7,9.5 7.5,9.75 8.5,9.75 C9.5,9.75 10,9.5 10,9.5 L10,11.5 C10,11.5 9.5,11.75 8.5,11.75 C7.5,11.75 7,11.5 7,11.5 L7,9.5 L7,9.5 Z"/></g></g></g></svg>