<svg xmlns="http://www.w3.org/2000/svg" xmlns:xlink="http://www.w3.org/1999/xlink" width="23" height="23" version="1.1" viewBox="0 0 23 23"><title>police-m</title><desc>Created with Sketch.</desc><g id="POI" fill="none" fill-rule="evenodd" stroke="none" stroke-width="1"><g id="police-m"><ellipse id="Oval-1-Copy-41" cx="11.5" cy="11.5" fill="#FFF" rx="11.5" ry="11.5"/><ellipse id="Oval-1-Copy-40" cx="11.5" cy="11.5" fill="#7F7D54" rx="10.5" ry="10.5"/><path id="rect7805-5-4-copy" fill="#FFF" d="M10,4 L9,4.5 L9,5.5 L14,5.5 L14,4.5 L13,4 L10,4 Z M9,6.5 C8.9667,6.6627 9,6.8274 9,7 C9,8.3807 10.11931,9.5 11.5,9.5 C12.88069,9.5 14,8.3807 14,7 L14,6.5 L9,6.5 Z M9,10.5 C7.91667,10.5 7.01415,12.2917 7,13.375 L7,17.5 L8.53125,17.5 L13,10.5 L9,10.5 Z M14.5,10.5 L10.03125,17.5 L16,17.5 L16,13.375 C16,12.2916 15.58334,10.5 14.5,10.5 L14.5,10.5 Z"/></g></g></svg>