<svg xmlns="http://www.w3.org/2000/svg" xmlns:xlink="http://www.w3.org/1999/xlink" width="27" height="27" version="1.1" viewBox="0 0 27 27"><title>police-l</title><desc>Created with Sketch.</desc><g id="POI" fill="none" fill-rule="evenodd" stroke="none" stroke-width="1"><g id="police-l"><circle id="Oval-1-Copy-39" cx="13.5" cy="13.5" r="13.5" fill="#FFF"/><circle id="Oval-1-Copy-38" cx="13.5" cy="13.5" r="12.5" fill="#7F7D54"/><path id="rect7805-5-copy" fill="#FFF" d="M11,4 L10,5 L10,6 L17,6 L17,5 L16,4 L11,4 L11,4 Z M10,7 L10,7.5 C10,9.433 11.56702,11 13.5,11 C15.43298,11 17,9.433 17,7.5 L17,7 L10,7 L10,7 Z M9,12 C7.5,12 7,14.5 7,16 L7,22 L9.6875,22 L16.5,12 L9,12 L9,12 Z M18,12 L11.1875,22 L20,22 L20,16 C20,14.5 19.5,12 18,12 L18,12 Z"/></g></g></svg>