<svg xmlns="http://www.w3.org/2000/svg" xmlns:xlink="http://www.w3.org/1999/xlink" width="17" height="17" version="1.1" viewBox="0 0 17 17"><title>ship-s</title><desc>Created with Sketch.</desc><g id="Transport" fill="none" fill-rule="evenodd" stroke="none" stroke-width="1"><g id="ship-s"><circle id="Oval-1-Copy-43" cx="8.5" cy="8.5" r="8.5" fill="#FFF"/><circle id="Oval-1-Copy-42" cx="8.5" cy="8.5" r="7.5" fill="#3C3E38"/><path id="path30937-copy" fill="#FFF" d="M5.5,3.5 C5.223,3.5 5,3.723 5,4 L5,7.5 L4,8 L5,10 L5,11 L7,11.5 L8.5,11 L10,11.5 L12,11 L12,10 L13,8 L12,7.5313 L12,4 C12,3.723 11.777,3.5 11.5,3.5 L10.5,3.5 L6.5,3.5 L5.5,3.5 Z M6,4.5 L11,4.5 L11,7.0625 L8.5,5.5 L6,7 L6,4.5 Z M5.5,11.9995 L4,12.4683 L4,13.4995 L4.15625,13.4375 L5.5,13 L7,13.5 L8.5,13 L10,13.5 L11.5,13 L13,13.5 L13,12.4688 L11.5,12 L10,12.4688 L8.5,12 L7,12.4688 L5.5,11.9995 Z"/></g></g></svg>