<svg xmlns="http://www.w3.org/2000/svg" xmlns:xlink="http://www.w3.org/1999/xlink" width="21" height="17" version="1.1" viewBox="0 0 21 17"><title>subway-barcelona-s</title><desc>Created with Sketch.</desc><g id="Subways" fill="none" fill-rule="evenodd" stroke="none" stroke-width="1"><g id="metro-barcelona-s" transform="translate(0.000000, 1.000000)"><path id="Rectangle-339-Copy-4" fill="#FFF" d="M0,7.5 L10.5,3.73034936e-14 L21,7.5 L10.5,15 L0,7.5 L0,7.5 Z"/><path id="Rectangle-339" fill="#ED1B2D" d="M1,7.5 L10.5,1 L20,7.5 L10.5,14 L1,7.5 L1,7.5 Z"/><path id="path4854" fill="#FFF" d="M13,10 L13,8.57142857 L9.88198758,7.4992236 L13,6.42857143 L13,5 L8,5 L8,6.11102484 L10.867669,6.0892857 L8,7.14285714 L8,7.85714286 L10.867669,8.88897521 L9.69409938,8.88897516 L8,8.88897516 L8,10 L13,10 Z" transform="translate(10.500000, 7.500000) rotate(-90.000000) translate(-10.500000, -7.500000)"/></g></g></svg>