<svg xmlns="http://www.w3.org/2000/svg" xmlns:xlink="http://www.w3.org/1999/xlink" width="17" height="13" version="1.1" viewBox="0 0 17 13"><title>subway-london-s</title><desc>Created with Sketch.</desc><g id="Subways" fill="none" fill-rule="evenodd" stroke="none" stroke-width="1"><g id="subway-london-s"><rect id="Rectangle-330-Copy" width="17" height="5" x="0" y="4" fill="#FFF"/><circle id="Oval-203-Copy-2" cx="8.5" cy="6.5" r="6.5" fill="#FFF"/><path id="Oval-203" fill="#E12524" d="M8.5,12 C11.5375661,12 14,9.53756612 14,6.5 C14,3.46243388 11.5375661,1 8.5,1 C5.46243388,1 3,3.46243388 3,6.5 C3,9.53756612 5.46243388,12 8.5,12 Z M8.5,10 C10.4329966,10 12,8.43299662 12,6.5 C12,4.56700338 10.4329966,3 8.5,3 C6.56700338,3 5,4.56700338 5,6.5 C5,8.43299662 6.56700338,10 8.5,10 Z"/><rect id="Rectangle-330" width="15" height="3" x="1" y="5" fill="#043A86"/></g></g></svg>