<svg xmlns="http://www.w3.org/2000/svg" xmlns:xlink="http://www.w3.org/1999/xlink" width="27" height="27" version="1.1" viewBox="0 0 27 27"><title>volcano-l</title><desc>Created with Sketch.</desc><g id="POI" fill="none" fill-rule="evenodd" stroke="none" stroke-width="1"><g id="volcano-l"><ellipse id="Oval-1-Copy-39" cx="13.5" cy="13.5" fill="#FFF" rx="13.5" ry="13.5"/><ellipse id="Oval-1-Copy-38" cx="13.5" cy="13.5" fill="#7F7D54" rx="12.5" ry="12.5"/><path id="path11349" fill="#FFF" d="M13.4999998,11.1570941 C12.902949,11.1570941 11.7512537,10.5975741 11.7512537,10.5975741 L7.08552632,17.96875 C7.02524737,18.0748312 7,18.1938375 7,18.3125 C7,18.828125 7.34210526,19.0001375 7.68421053,19 L19.3157895,19 C19.6578947,19.0001375 20,18.828125 20,18.3125 C20,18.1938375 19.9747868,18.0748312 19.9144737,17.96875 L15.3358539,10.5975741 C15.3358539,10.5975741 14.0978158,11.1570941 13.4999998,11.1570941 Z"/><rect id="Rectangle-35" width="2.348" height="2.348" x="12.913" y="7.043" fill="#FFF"/><rect id="Rectangle-35-Copy" width="2.348" height="2.348" x="15.261" y="4.696" fill="#FFF"/></g></g></svg>