<svg xmlns="http://www.w3.org/2000/svg" xmlns:xlink="http://www.w3.org/1999/xlink" width="17" height="17" version="1.1" viewBox="0 0 17 17"><title>volcano-s</title><desc>Created with Sketch.</desc><g id="POI" fill="none" fill-rule="evenodd" stroke="none" stroke-width="1"><g id="volcano-s"><circle id="Oval-1-Copy-39" cx="8.5" cy="8.5" r="8.5" fill="#FFF"/><circle id="Oval-1-Copy-38" cx="8.5" cy="8.5" r="7.87" fill="#7F7D54"/><path id="path11349" fill="#FFF" d="M8.4999999,7.02483701 C8.12407903,7.02483701 7.39893749,6.67254666 7.39893749,6.67254666 L4.46125731,11.3136574 C4.4233039,11.3804493 4.40740741,11.4553792 4.40740741,11.5300926 C4.40740741,11.8547454 4.62280702,11.9630495 4.83820663,11.962963 L12.1617934,11.962963 C12.377193,11.9630495 12.5925926,11.8547454 12.5925926,11.5300926 C12.5925926,11.4553792 12.5767176,11.3804493 12.5387427,11.3136574 L9.655908,6.67254666 C9.655908,6.67254666 8.87640253,7.02483701 8.4999999,7.02483701 Z"/><rect id="Rectangle-35" width="1.478" height="1.478" x="8.13" y="4.435" fill="#FFF"/><rect id="Rectangle-35-Copy" width="1.478" height="1.478" x="9.609" y="2.957" fill="#FFF"/></g></g></svg>