<svg xmlns="http://www.w3.org/2000/svg" xmlns:xlink="http://www.w3.org/1999/xlink" width="27" height="27" version="1.1" viewBox="0 0 27 27"><title>zoo-l</title><desc>Created with Sketch.</desc><g id="POI" fill="none" fill-rule="evenodd" stroke="none" stroke-width="1"><g id="zoo-l"><circle id="Oval-1-Copy-39" cx="13.5" cy="13.5" r="13.5" fill="#FFF"/><circle id="Oval-1-Copy-38" cx="13.5" cy="13.5" r="12.5" fill="#7F7D54"/><path id="path10847-43-3-9" fill="#FFF" d="M19,4 C17,7 15.215787,9.0052 13,11 C10.883373,12.9055 7,12.2513 7,15 L7,16 C7,17 8,17.9515 8,19 L8,20 C8,21.5 7.5,21.5 7,23 L8,23 L10,20 L10,23 L11,23 L11,21.5 L11,17 L13,17 L13,23 L14,23 L14,20 L14,18.5 L15,20 L16,23 L17,23 L15.46875,16.71875 C16.058246,16.359058 16,15.694118 16,15 L16,12 L20,6.5 L21.4375,6.9453125 C21.737214,7.0381587 22,7 22,6.75 C22,6.25 21.673378,6.1387024 21.5,6 L19,4 Z"/></g></g></svg>