<svg xmlns="http://www.w3.org/2000/svg" xmlns:svg="http://www.w3.org/2000/svg" id="symbol-archery" width="38" height="38" version="1.0" viewBox="0 0 300 300"><rect id="rect2471" width="269.521" height="258.248" x="15.29" y="20.639" fill="none" stroke="#000" stroke-linejoin="round" stroke-miterlimit="4" stroke-width="14.69" ry="20.87"/><path id="path2387" fill="#000" fill-opacity="1" fill-rule="evenodd" stroke="#000" stroke-linecap="butt" stroke-linejoin="miter" stroke-opacity="1" stroke-width="1" d="M 58.261298,71.858418 C 58.258258,80.787624 65.495987,88.027798 74.425237,88.027798 C 83.354477,88.027798 90.592208,80.787624 90.589168,71.858418 C 90.592208,62.929168 83.354477,55.688978 74.425237,55.688978 C 65.495987,55.688978 58.258258,62.929168 58.261298,71.858418 L 58.261298,71.858418 z"/><path id="path3168" fill="#000" fill-opacity="1" fill-rule="evenodd" stroke="#fff" stroke-dasharray="none" stroke-linecap="round" stroke-linejoin="round" stroke-miterlimit="4" stroke-opacity="1" stroke-width=".789" d="M 69.959369,96.772801 C 71.98539,96.431432 74.06469,96.893278 75.755693,98.060241 L 100.59767,114.66154 L 132.88253,108.80052 C 137.17888,108.02087 141.29377,110.87171 142.07343,115.16807 C 142.85307,119.46441 140.00222,123.5793 135.70588,124.35895 L 100.24949,130.77021 C 98.240939,131.13384 96.169626,130.70547 94.470076,129.57498 L 66.978213,111.17239 C 64.254731,109.39894 62.896171,106.13781 63.555056,102.9553 C 64.213929,99.772781 66.755621,97.319131 69.959369,96.772801 z"/><path id="path2383" fill="none" fill-opacity="1" fill-rule="evenodd" stroke="#000" stroke-dasharray="none" stroke-linecap="round" stroke-linejoin="miter" stroke-miterlimit="4" stroke-opacity="1" stroke-width="34.34" d="M 68.942546,109.29519 C 68.942546,109.29519 68.587219,166.30833 68.587219,166.30833"/><path id="path3157" fill="none" fill-opacity="1" fill-rule="evenodd" stroke="#000" stroke-dasharray="none" stroke-linecap="round" stroke-linejoin="round" stroke-miterlimit="4" stroke-opacity="1" stroke-width="19.737" d="M 77.80665,173.55893 L 88.87122,200.50364 L 89.26628,236.07501"/><path id="path2388" fill="none" fill-opacity="1" fill-rule="evenodd" stroke="#000" stroke-dasharray="none" stroke-linecap="round" stroke-linejoin="round" stroke-miterlimit="4" stroke-opacity="1" stroke-width="19.737" d="M 61.212962,171.91509 L 60.672082,201.03809 L 46.913852,233.84343"/><g id="g3233" transform="matrix(0.6666666,0,0,1,-15.302868,9.0566038)"><path id="path3171" fill="none" fill-rule="evenodd" stroke="#000" stroke-dasharray="none" stroke-linecap="butt" stroke-linejoin="miter" stroke-miterlimit="4" stroke-opacity="1" stroke-width="7.894" d="M 406.57915,94.737891 C 406.57915,118.7182 387.13879,138.15809 363.1579,138.15809 C 339.177,138.15809 319.73665,118.7182 319.73665,94.737891 C 319.73665,70.757583 339.177,51.317695 363.1579,51.317695 C 387.13879,51.317695 406.57915,70.757583 406.57915,94.737891 L 406.57915,94.737891 z"/><path id="path3175" fill="none" fill-rule="evenodd" stroke="#000" stroke-dasharray="none" stroke-linecap="butt" stroke-linejoin="miter" stroke-miterlimit="4" stroke-opacity="1" stroke-width="7.895" d="M 382.89618,94.736115 C 382.89618,105.63685 374.05936,114.47368 363.15862,114.47368 C 352.25788,114.47368 343.42105,105.63685 343.42105,94.736115 C 343.42105,83.835363 352.25788,74.998553 363.15862,74.998553 C 374.05936,74.998553 382.89618,83.835363 382.89618,94.736115 L 382.89618,94.736115 z"/></g><path id="path2392" fill="none" fill-rule="evenodd" stroke="#000" stroke-dasharray="none" stroke-linecap="butt" stroke-linejoin="miter" stroke-miterlimit="4" stroke-opacity="1" stroke-width="6.446" d="M 106.23634,70.56298 C 122.2236,70.56298 135.18384,90.00286 135.18384,113.98317 L 135.18384,113.98317 C 135.18384,137.96348 122.2236,157.40337 106.23634,157.40337"/><path id="path2398" fill="none" fill-rule="evenodd" stroke="#000" stroke-dasharray="none" stroke-linecap="butt" stroke-linejoin="miter" stroke-miterlimit="4" stroke-opacity="1" stroke-width="1.579" d="M 109.06653,72.261094 C 109.27928,138.06644 108.9052,99.099774 109.06653,159.10148"/></svg>