<svg xmlns="http://www.w3.org/2000/svg" xmlns:svg="http://www.w3.org/2000/svg" id="Layer_1" width="83.8" height="83.8" x="0" y="0" enable-background="new 0 0 510.24 283.46" version="1.1" viewBox="0 0 83.8 83.8" xml:space="preserve"><metadata id="metadata33"/><rect id="rect3" width="281" height="176.334" x="-62.135" y="-18.867" fill="#c2b59b" display="none"/><g id="g2994" transform="translate(0,-5.3428273)"><rect id="rect5" width="5.114" height="28.5" x="14.113" y="28.633" fill="#594a42"/><rect id="rect7" width="5.125" height="28.5" x="64.547" y="31.133" fill="#594a42"/><path id="path9" fill="#da1c5c" d="m 23.226999,15.965997 h -12.227 L 4.9999995,34.904996 c 0,0 3.2,2.497 7.0329995,2.497 3.833,0 7.194,-2.497 7.194,-2.497 l 4,-18.938999 z"/><path id="path11" fill="#da1c5c" d="m 48.156999,15.965997 h -12.25 l -1,18.938999 c 0,0 3.124,2.497 7.291,2.497 4.167,0 6.959,-2.497 6.959,-2.497 l -1,-18.938999 z"/><path id="path13" fill="#da1c5c" d="m 72.795999,15.965997 h -12.249 l 4,18.938999 c 0,0 2.318,2.497 6.485,2.497 4.167,0 7.764,-2.497 7.764,-2.497 l -6,-18.938999 z"/><path id="path15" fill="#8dc63f" d="m 23.226999,15.965997 h 12.681 l -1,18.938999 c 0,0 -3.543,2.497 -7.876,2.497 -4.333,0 -7.805,-2.497 -7.805,-2.497 l 4,-18.938999 z"/><path id="path17" fill="#8dc63f" d="m 48.156999,15.965997 h 12.389 l 4,18.938999 c 0,0 -3.682,2.497 -7.848,2.497 -4.166,0 -7.541,-2.497 -7.541,-2.497 l -1,-18.938999 z"/><rect id="rect19" width="55.558" height="25.667" x="14.113" y="53.133" fill="#594a42"/><path id="path21" d="m 70.835999,50.845996 c 0,-0.829 -0.525,-1.502 -1.172,-1.502 h -55.542 c -0.647,0 -1.172,0.673 -1.172,1.502 v 4.785 c 0,0.829 0.525,1.502 1.172,1.502 h 55.542 c 0.647,0 1.172,-0.673 1.172,-1.502 v -4.785 z"/><path id="path23" fill="#27aae1" d="m 37.197999,45.078996 c 0,-0.934 -0.518,-1.692 -1.156,-1.692 h -13.611 c -0.638,0 -1.155,0.758 -1.155,1.692 v 2.574 c 0,0.934 0.518,1.692 1.155,1.692 h 13.611 c 0.638,0 1.156,-0.758 1.156,-1.692 v -2.574 z"/><path id="path25" fill="#be1e2d" d="m 51.197999,47.704996 c 0,1.024 -0.694,1.855 -1.55,1.855 h -9.719 c -0.855,0 -1.55,-0.831 -1.55,-1.855 v -0.413 c 0,-1.024 0.694,-1.855 1.55,-1.855 h 9.719 c 0.855,0 1.55,0.831 1.55,1.855 v 0.413 z"/><path id="path27" fill="#f7941e" d="m 62.197999,43.640996 c 0,-0.664 -0.582,-1.202 -1.299,-1.202 h -6.638 c -0.717,0 -1.299,0.539 -1.299,1.202 v 4.501 c 0,0.664 0.582,1.202 1.299,1.202 h 6.638 c 0.717,0 1.299,-0.539 1.299,-1.202 v -4.501 z"/></g></svg>