<svg xmlns="http://www.w3.org/2000/svg" xmlns:svg="http://www.w3.org/2000/svg" id="symbol-parking" width="24" height="24" version="1.1"><title id="title3061">Parking Map Icon</title><metadata id="metadata11"/><rect id="rect2987" width="22" height="22" x="1" y="1" fill="#f2f2f2" fill-opacity="1" stroke="none" rx="4.4" ry="4.4"/><rect id="rect2985" width="20" height="20" x="2" y="2" fill="#0044d8" fill-opacity="1" stroke="none" rx="4" ry="4"/><path id="rect3766" fill="#fff" fill-opacity="1" stroke="none" d="m 7,5.53125 0,10 c 0,0 0,4 0,5 l 3,0 0,-5 3,0 c 2.761424,0 5,-2.238576 5,-5 0,-2.7614237 -2.238576,-5 -5,-5 l -3,0 z m 3,2.53125 3,0 c 1.10457,0 2,1.1126809 2,2.46875 C 15,11.887319 14.10457,13 13,13 l -3,0 0,-2.46875 z"/><rect id="rect2988" width="9" height="2" x="2.073" y="5.038" fill="#fff" fill-opacity="1" stroke="none" transform="matrix(0.96592583,-0.25881905,0.25881905,0.96592583,0,0)"/><rect id="rect2990" width="9" height="2" x="-21.109" y="-1.174" fill="#fff" fill-opacity="1" stroke="none" transform="matrix(-0.96592583,-0.25881905,-0.25881905,0.96592583,0,0)"/></svg>