<svg xmlns="http://www.w3.org/2000/svg" xmlns:svg="http://www.w3.org/2000/svg" id="parking_fee-permissive" width="36" height="18" version="1.0"><g id="parking_fee" transform="matrix(0.5,0,0,0.5,0,-20)"><g id="g2900" transform="translate(0,40)"><rect id="rect2902" width="72" height="36" x="0" y="0" fill="#aaa" rx="2" ry="2"/><path id="path2904" fill="#fff" d="M 15.7,21.4 L 15.76,30.7 L 7.8,30.7 L 7.8,5.1 L 18.7,5.1 C 21.4,5.1 23.5,5.4 24.9,6 C 26.4,6.7 27.5,7.6 28.3,8.9 C 29.1,10.2 29.4,11.7 29.6,13.3 C 29.6,15.7 28.7,17.7 27,19.2 C 25.3,20.6 23,21.4 20.2,21.4 L 15.8,21.4 L 15.7,21.4 z M 15.6,15.9 L 18.3,15.9 C 20.6,15.9 21.7,15 21.7,13.1 C 21.7,11.8 20.7,11 18.5,11 L 15.64,11 L 15.6,15.9 z"/><path id="path2906" fill="#fff" d="M 38.5,33.76 L 69.5,33.76 C 69.776142,33.76 70,33.536142 70,33.26 L 70,2.26 C 70,1.9838576 69.776142,1.76 69.5,1.76 L 38.5,1.76 C 38.223858,1.76 38,1.9838576 38,2.26 L 38,33.26 C 38,33.536142 38.223858,33.76 38.5,33.76 z"/><path id="path2908" fill="#aaa" d="M 40,31.76 L 40,3.76 L 68,3.76 L 68,31.76 L 40,31.76 z"/></g><g id="g3894" transform="matrix(0.922587,0,0,0.922587,4.1701143,4.4683601)"><rect id="rect4197" width="23.349" height="11.674" x="46.746" y="44.002" fill="#aaa" fill-opacity="1" stroke="#fff" stroke-dasharray="none" stroke-miterlimit="4" stroke-opacity="1" stroke-width="1.075" transform="matrix(0.9948298,0.1015563,-0.1015563,0.9948298,0,0)"/><path id="path3224" fill="#aaa" fill-opacity="1" stroke="#fff" stroke-dasharray="none" stroke-miterlimit="4" stroke-opacity="1" stroke-width="7.6" d="M 411.42859 375.87302 A 46.984127 46.984127 0 1 1 317.46033,375.87302 A 46.984127 46.984127 0 1 1 411.42859 375.87302 z" transform="matrix(0.1272924,0,0,0.1272924,14.568602,12.069448)"/><text font-family="Myriad Pro" style="text-align:start;line-height:125%" id="text4205" x="58.128" y="63.269" fill="#fff" fill-opacity="1" stroke="#fff" stroke-linecap="butt" stroke-linejoin="miter" stroke-opacity="1" stroke-width=".141" font-size="9.665" font-stretch="normal" font-style="normal" font-variant="normal" font-weight="bold" text-anchor="start" writing-mode="lr-tb" xml:space="preserve"><tspan id="tspan4207" x="58.128" y="63.269" fill="#fff" fill-opacity="1" stroke-width=".141">2</tspan></text><path id="path4199" fill="#aaa" fill-opacity="1" stroke="#fff" stroke-dasharray="none" stroke-miterlimit="4" stroke-opacity="1" stroke-width="7.6" d="M 411.42859 375.87302 A 46.984127 46.984127 0 1 1 317.46033,375.87302 A 46.984127 46.984127 0 1 1 411.42859 375.87302 z" transform="matrix(9.8999267e-2,0,0,9.8999267e-2,18.414082,25.218524)"/><text font-family="Myriad Pro" style="text-align:start;line-height:125%" id="text4201" x="52.545" y="64.743" fill="#fff" fill-opacity="1" stroke="#fff" stroke-linecap="butt" stroke-linejoin="miter" stroke-opacity="1" stroke-width=".141" font-size="7.117" font-stretch="normal" font-style="normal" font-variant="normal" font-weight="bold" text-anchor="start" writing-mode="lr-tb" xml:space="preserve"><tspan id="tspan4203" x="52.545" y="64.743" fill="#fff" fill-opacity="1" stroke-width=".141">1</tspan></text></g></g></svg>