<svg xmlns="http://www.w3.org/2000/svg" xmlns:svg="http://www.w3.org/2000/svg" id="symbol-school" width="24" height="24" version="1.1" viewBox="0 0 566.524 566.524"><metadata id="metadata27"/><path id="path3039" fill="none" stroke="#505050" stroke-dasharray="none" stroke-linecap="round" stroke-linejoin="round" stroke-miterlimit="4" stroke-opacity="1" stroke-width="37.768" d="m 94.420608,283.26181 70.815442,-94.4206 94.42061,23.60515 23.60515,47.2103"/><path id="path3809" fill="none" stroke="#505050" stroke-dasharray="none" stroke-linecap="round" stroke-linejoin="round" stroke-miterlimit="4" stroke-opacity="1" stroke-width="37.768" d="m 188.84121,472.10302 -23.60516,-94.4206 47.21031,-94.42061 47.2103,118.02576 70.81545,-23.60516"/><path id="path3811" fill="none" stroke="#505050" stroke-dasharray="none" stroke-linecap="round" stroke-linejoin="round" stroke-miterlimit="4" stroke-opacity="1" stroke-width="35.408" d="m 330.47211,236.05151 23.60515,47.2103 70.81546,-47.2103 70.81545,23.60515 23.60515,70.81545"/><path id="path3813" fill="none" stroke="#505050" stroke-dasharray="none" stroke-linecap="round" stroke-linejoin="round" stroke-miterlimit="4" stroke-opacity="1" stroke-width="37.768" d="m 401.28756,472.10302 -23.60515,-70.81545 70.81546,-70.81546 23.60515,94.42061 47.2103,0"/><path id="path3815" fill="#505050" fill-opacity="1" stroke="none" d="M 8,4 A 2,2 0 1 1 4,4 2,2 0 1 1 8,4 z" transform="matrix(23.605151,0,0,23.605151,-1.3333333e-6,23.605149)"/><path id="path3817" fill="#505050" fill-opacity="1" stroke="none" d="m 20,8 a 2,2 0 1 1 -4,0 2,2 0 1 1 4,0 z" transform="matrix(23.605151,0,0,23.605151,-3.3333333e-6,-23.605153)"/><path id="path3819" fill="#505050" fill-opacity="1" stroke="#505050" stroke-linecap="round" stroke-linejoin="round" stroke-opacity="1" stroke-width="23.605" d="m 377.68241,354.07727 118.02576,23.60515 -70.81545,-141.63091 0,0 z"/><path id="path3821" fill="#505050" fill-opacity="1" stroke="#505050" stroke-linecap="butt" stroke-linejoin="miter" stroke-opacity="1" stroke-width="23.605" d="m 188.84121,330.47212 47.2103,0 -23.60515,-118.02576 -47.2103,-23.60515 -23.60515,47.2103 z"/></svg>