<svg xmlns="http://www.w3.org/2000/svg" xmlns:svg="http://www.w3.org/2000/svg" id="symbol-bus" width="24" height="24" version="1.1" viewBox="0 0 51.502 51.502"><title id="title2983">Tramway Stop Map Icon</title><metadata id="metadata23"/><rect id="rect2995" width="34.335" height="38.627" x="8.584" y="4.292" fill="#f2f2f2" fill-opacity="1" stroke="none" rx="6.867" ry="7.725"/><rect id="rect2993" width="30.043" height="34.335" x="10.73" y="6.438" fill="#003cd8" fill-opacity="1" stroke="none" rx="6.009" ry="6.867"/><path id="rect3005" fill="#fff" fill-opacity="1" stroke="none" d="m 19.619869,17.167383 18.546905,0 0,17.167382 -3.372165,0 -1.686081,-3.121342 -13.488659,0 -1.686082,3.121342 -3.372164,0 c -1.150275,0 -1.686082,-0.439642 -1.686082,-1.560672 l 0,-4.682013 c 0,-0.72602 0.538403,-2.36761 0.929259,-2.99424 l 4.128987,-6.369786 c 0.355801,-0.456595 0.917828,-1.560672 1.686082,-1.560671 z"/><path id="path3008" fill="#fff" fill-opacity="1" stroke="none" d="m 12,18 a 2,2 0 1 1 -4,0 2,2 0 1 1 4,0 z" transform="matrix(1.6860822,0,0,1.5606711,6.1312114,6.2426844)"/><path id="path3010" fill="#fff" fill-opacity="1" stroke="none" d="m 12,18 a 2,2 0 1 1 -4,0 2,2 0 1 1 4,0 z" transform="matrix(1.6860822,0,0,1.5606711,12.875541,6.2426844)"/><path id="path3012" fill="#0044d8" fill-opacity="1" stroke="none" d="m 19.047788,19.610604 -3.463393,5.342975 c -0.512897,0.964891 -0.107885,1.57783 1.440553,1.57783 l 7.653168,0 0,-7.803355 -3.906719,0 c -1.151528,0 -1.031312,0.138181 -1.723609,0.88255 z"/><rect id="rect3782" width="10.116" height="7.803" x="26.364" y="18.728" fill="#0044d8" fill-opacity="1" stroke="none"/><path id="rect3795" fill="#fff" fill-opacity="1" stroke="none" d="m 26.605857,8.5836914 -4.342725,3.4334766 -0.0016,0.858369 0.0016,0.858369 4.342725,3.433476 0.03912,0 0.634015,-1.502145 -3.568289,-2.7897 3.584008,-2.7897 -0.01293,-1.5021458 z m 1.291081,0 -0.622761,-2e-7 0.0047,1.4913678 3.51327,2.800478 -3.52113,2.7897 -0.626003,1.502145 1.251982,0 4.342726,-3.433476 0.0094,-0.858369 -0.0094,-0.858369 z"/></svg>