<svg xmlns="http://www.w3.org/2000/svg" xmlns:svg="http://www.w3.org/2000/svg" id="symbol-bus" width="24" height="24" version="1.1" viewBox="0 0 51.502 51.502"><title id="title2983">Tramway Stop Map Icon</title><metadata id="metadata23"/><rect id="rect2995" width="47.21" height="47.21" x="2.146" y="2.146" fill="#f2f2f2" fill-opacity="1" stroke="none" rx="9.442" ry="9.442"/><rect id="rect2993" width="20" height="20" x="2" y="2" fill="#003cd8" fill-opacity="1" stroke="none" rx="4" ry="4" transform="scale(2.1459228,2.1459228)"/><path id="rect3005" fill="#fff" fill-opacity="1" stroke="none" d="m 19.313305,17.167383 23.605151,0 0,23.60515 -4.291846,0 -2.145922,-4.291845 -17.167383,0 -2.145923,4.291845 -4.291845,0 c -1.463986,0 -2.145923,-0.604507 -2.145923,-2.145923 l 0,-6.437768 c 0,-0.998278 0.68524,-3.255464 1.182694,-4.11708 l 5.255074,-8.758457 c 0.452838,-0.627817 1.168145,-2.145923 2.145923,-2.145922 z"/><path id="path3008" fill="#fff" fill-opacity="1" stroke="none" d="m 12,18 a 2,2 0 1 1 -4,0 2,2 0 1 1 4,0 z" transform="matrix(2.1459228,0,0,2.1459228,2.1459227,2.1459226)"/><path id="path3010" fill="#fff" fill-opacity="1" stroke="none" d="m 12,18 a 2,2 0 1 1 -4,0 2,2 0 1 1 4,0 z" transform="matrix(2.1459228,0,0,2.1459228,10.729614,2.1459226)"/><path id="path3012" fill="#0044d8" fill-opacity="1" stroke="none" d="m 18.585201,20.526812 -4.407954,7.346591 c -0.652778,1.326725 -0.137308,2.169516 1.833431,2.169516 l 9.740395,0 0,-10.729614 -4.972188,0 c -1.46558,0 -1.312578,0.189999 -2.193684,1.213507 z"/><rect id="rect3782" width="12.876" height="10.73" x="27.897" y="19.313" fill="#0044d8" fill-opacity="1" stroke="none"/><path id="rect3795" fill="#fff" fill-opacity="1" stroke="none" d="m 27.829936,6.4377688 -7.443669,4.2918452 -0.0027,1.072961 0.0027,1.072962 7.443669,4.291845 0.06706,0 1.086736,-1.877682 -6.116242,-3.487125 6.143186,-3.4871238 -0.02217,-1.8776827 z m 2.212983,0 -1.067447,-3e-7 0.008,1.8642104 6.021936,3.5005961 L 28.97,15.2897 l -1.073004,1.877682 2.145965,0 7.44367,-4.291845 0.01618,-1.072962 -0.01618,-1.072961 z"/></svg>