<svg xmlns="http://www.w3.org/2000/svg" xmlns:svg="http://www.w3.org/2000/svg" xmlns:xlink="http://www.w3.org/1999/xlink" id="bank" width="18.641" height="18.641" x="0" y="0" enable-background="new 0 0 18.641 18.641" version="1.1" viewBox="0 0 18.641 18.641" xml:space="preserve"><g><path fill="#50524E" d="M10.14,11.482v1.641C11.184,12.973,11.184,11.632,10.14,11.482z"/><path fill="#50524E" d="M9.246,9.096V7.456C8.202,7.605,8.202,8.947,9.246,9.096z"/><path fill="#50524E" d="M9.693,0.045L0,7.456h2.237V18.64h14.166V7.456h2.237L9.693,0.045z M10.14,15.211 c0,0.895,0,1.192-0.447,1.192s-0.447-0.298-0.447-1.192c-0.746,0-2.834-0.299-2.685-1.641s1.641-0.597,2.685-0.447v-1.938 C8.052,10.885,6.561,9.991,6.561,8.35c0-1.64,1.491-2.684,2.685-2.684c0-0.895,0-1.193,0.447-1.193s0.447,0.299,0.447,1.193 c0.895,0,2.982,0.298,2.535,1.342s-1.79,0.597-2.535,0.447v1.938c1.342,0.299,2.833,1.193,2.833,2.834 C12.973,13.868,11.632,15.211,10.14,15.211z"/></g></svg>