<svg xmlns="http://www.w3.org/2000/svg" xmlns:svg="http://www.w3.org/2000/svg" xmlns:xlink="http://www.w3.org/1999/xlink" id="hotel" width="24" height="24" x="0" y="0" enable-background="new 0 0 24 24" version="1.1" viewBox="0 0 24 24" xml:space="preserve"><title id="title3008">Hotel Map Icon</title><rect id="rect2988" width="2" height="12" x="2" y="8" fill="#50524E"/><path id="path2990" fill="#50524E" d="M4,20	c0,0.553-0.448,1-1,1s-1-0.447-1-1s0.448-1,1-1S4,19.447,4,20z"/><path id="path2992" fill="#50524E" d="M4,8	c0,0.552-0.448,1-1,1S2,8.552,2,8s0.448-1,1-1S4,7.448,4,8z"/><rect id="rect2994" width="2" height="8" x="20" y="12" fill="#50524E"/><path id="path2996" fill="#50524E" d="M22,20c0,0.553-0.447,1-1,1s-1-0.447-1-1s0.447-1,1-1S22,19.447,22,20z"/><path id="path2998" fill="#50524E" d="M22,12	c0,0.553-0.447,1-1,1s-1-0.447-1-1c0-0.552,0.447-1,1-1S22,11.448,22,12z"/><rect id="rect3000" width="17" height="2" x="3" y="14" fill="#50524E"/><path id="rect3006" fill="#50524E" d="M6,10h4c0.552,0,1,0.448,1,1v1c0,0.553-0.448,1-1,1H6c-0.552,0-1-0.447-1-1v-1	C5,10.448,5.448,10,6,10z"/></svg>