<svg xmlns="http://www.w3.org/2000/svg" xmlns:svg="http://www.w3.org/2000/svg" xmlns:xlink="http://www.w3.org/1999/xlink" id="symbol-parking" width="24" height="24" x="0" y="0" enable-background="new 0 0 24 24" version="1.1" viewBox="0 0 24 24" xml:space="preserve"><title id="title2985">Parking Map Icon</title><path id="rect2987" fill="#F2F2F2" d="M5.4,1h13.2C21.03,1,23,2.97,23,5.4v13.2c0,2.431-1.97,4.4-4.4,4.4H5.4	C2.97,23,1,21.03,1,18.6V5.4C1,2.97,2.97,1,5.4,1z"/><path id="rect2985" fill="#0044D8" d="M6,2h12c2.209,0,4,1.791,4,4v12c0,2.209-1.791,4-4,4H6c-2.209,0-4-1.791-4-4V6	C2,3.791,3.791,2,6,2z"/><path id="rect3766" fill="#FFF" d="M7,5v10	c0,0,0,4,0,5h3v-5h3c2.762,0,5-2.238,5-5c0-2.761-2.238-5-5-5h-3H7z M10,7.531h3c1.104,0,2,1.113,2,2.469s-0.896,2.469-2,2.469h-3	V10V7.531z"/></svg>