<svg xmlns="http://www.w3.org/2000/svg" xmlns:svg="http://www.w3.org/2000/svg" xmlns:xlink="http://www.w3.org/1999/xlink" id="hospital" width="24" height="24" x="0" y="0" enable-background="new 0 0 24 24" version="1.1" viewBox="0 0 24 24" xml:space="preserve"><title id="title2987">Pharmacy Map Icon</title><path id="path2990" fill="#43B413" d="M12,2C6.477,2,2,6.477,2,12c0,5.523,4.477,10,10,10c5.523,0,10-4.477,10-10	C22,6.477,17.523,2,12,2z M12,4c4.418,0,8,3.582,8,8c0,4.418-3.582,8-8,8c-4.418,0-8-3.582-8-8C4,7.582,7.582,4,12,4z M10,6v4H6v4h4	v4h4v-4h4v-4h-4V6H10z"/></svg>