<svg xmlns="http://www.w3.org/2000/svg" xmlns:svg="http://www.w3.org/2000/svg" xmlns:xlink="http://www.w3.org/1999/xlink" id="svg2" width="182.439" height="182.439" x="0" y="0" enable-background="new 0 0 182.439 182.439" version="1.1" viewBox="0 0 182.439 182.439" xml:space="preserve"><g id="g2993"><path id="path4" fill="#50524E" d="M125.425,28.358H57.499V16.324 c0-3.493,2.831-6.324,6.324-6.324h55.277c3.493,0,6.324,2.831,6.324,6.324V28.358z"/><path id="path6" fill="#50524E" d="M125.425,36.956c0,18.757-15.206,39.962-33.963,39.962 c-18.756,0-33.962-21.206-33.962-39.962C81.152,36.956,102.53,36.956,125.425,36.956z"/><g><path fill="#50524E" d="M50.724,83.94c-6.262,0-11.338,5.578-11.338,12.458v63.584c0,6.882,5.075,12.458,11.338,12.458h9.911 l56.788-88.5H50.724z"/><path fill="#50524E" d="M133.849,83.998L79.385,172.44h53.411c6.263,0,11.339-5.577,11.339-12.458V96.398 C144.135,89.908,139.617,84.582,133.849,83.998z"/><path fill="#50524E" d="M132.796,83.94c0.355,0,0.706,0.023,1.053,0.059l0.036-0.059H132.796z"/></g></g></svg>