<svg xmlns="http://www.w3.org/2000/svg" xmlns:svg="http://www.w3.org/2000/svg" xmlns:xlink="http://www.w3.org/1999/xlink" id="toilets" width="24" height="24" x="0" y="0" enable-background="new 0 0 24 24" version="1.1" viewBox="0 0 24 24" xml:space="preserve"><path id="path2998" fill="#50524E" d="M2.713,7C2.135,7,1.711,7.382,1.436,7.812C1.159,8.243,1,8.78,1,9.375v5.469c0.048,0.406,0.403,0.744,0.784,0.744	c0.381,0,0.736-0.338,0.784-0.744V9.375c0-0.266,0.073-0.481,0.145-0.594c0.032-0.05,0.051-0.088,0.058-0.094h0.406	C3.154,13.222,3.119,17.324,3.119,22c0.031,0.535,0.49,0.999,0.987,0.999S5.063,22.535,5.094,22v-6h0.812v6	c0.031,0.535,0.49,0.999,0.987,0.999S7.85,22.535,7.881,22c0.035-4.386-0.063-9.262-0.058-13.312h0.406	C8.235,8.692,8.26,8.71,8.287,8.75c0.061,0.088,0.145,0.275,0.145,0.531v5.562c0.048,0.406,0.403,0.744,0.784,0.744	c0.38,0,0.736-0.338,0.784-0.744V9.281C10,8.69,9.852,8.166,9.564,7.75C9.277,7.334,8.828,7,8.287,7H2.713z"/><path id="path3776" fill="#50524E" d="M7.5,4	c0,1.104-0.896,2-2,2s-2-0.896-2-2s0.896-2,2-2S7.5,2.896,7.5,4z"/><rect id="rect3787" width="2.191" height="21" x="10.905" y="2" fill="#50524E"/><path id="path3804" fill="#50524E" d="M16.406,7.25c-0.784,0-1.399,0.561-1.594,1.312l-1.531,6.25	c-0.159,0.383,0.021,0.821,0.404,0.98c0.383,0.16,0.821-0.021,0.98-0.404c0.027-0.064,0.045-0.132,0.053-0.201l1.562-6.281	c0.054-0.079,0.174-0.156,0.125-0.156h0.375h0.062L15,18h1.156c-0.01,1.31-0.031,2.596-0.031,4c0.031,0.535,0.471,1,0.969,1	s0.969-0.465,1-1v-4h0.812v4c0.031,0.535,0.502,1,1,1s0.938-0.465,0.969-1c0.01-1.293,0.004-2.653,0-4H22l-1.844-9.25h0.531	c0.107,0,0.13-0.002,0.156,0c0.001,0.012,0.043,0.071,0.062,0.125C20.924,8.925,20.879,8.87,20.938,9l1.344,6.156	c0.007,0.414,0.349,0.744,0.763,0.737s0.744-0.349,0.737-0.763c-0.002-0.099-0.023-0.196-0.062-0.287l-1.375-6.312V8.469	l-0.031-0.062c0.01,0.022-0.01-0.281-0.281-0.625S21.24,7.25,20.688,7.25h-0.625h-3.281H16.406z"/><path id="path3791" fill="#50524E" d="M20.562,4c0,1.104-0.896,2-2,2s-2-0.896-2-2s0.896-2,2-2S20.562,2.896,20.562,4z"/></svg>